<svg width="24" height="24" viewBox="0 0 24 24" fill="none" xmlns="http://www.w3.org/2000/svg">
    <rect width="24" height="24" rx="12" fill="white"/>
    <path d="M12 17.7497C11.5684 17.7497 11.2188 17.4 11.2188 16.9685V7.03223C11.2188 6.60066 11.5684 6.25098 12 6.25098C12.4316 6.25098 12.7812 6.60066 12.7812 7.03223V16.9685C12.7812 17.4 12.4316 17.7497 12 17.7497Z" fill="#117C6F"/>
    <path d="M16.9675 12.7812H7.03125C6.59969 12.7812 6.25 12.4316 6.25 12C6.25 11.5684 6.59969 11.2188 7.03125 11.2188H16.9675C17.3991 11.2188 17.7488 11.5684 17.7488 12C17.7488 12.4316 17.3991 12.7812 16.9675 12.7812Z" fill="#117C6F"/>
</svg>
