<svg width="345" height="108" viewBox="0 0 345 108" fill="none" xmlns="http://www.w3.org/2000/svg">
    <rect x="0.5" y="0.5" width="344" height="107" rx="11.5" stroke="#E4E4E4"/>
    <g clip-path="url(#clip0_504_3409)">
        <path d="M180.496 24.8218C179.387 20.403 174.906 17.7201 170.487 18.8293C167.034 19.6961 164.526 22.6807 164.268 26.2316C161.816 26.6359 160.156 28.9514 160.561 31.4033C160.92 33.583 162.809 35.1794 165.018 35.1706H168.768V33.6708H165.018C163.361 33.6708 162.018 32.3278 162.018 30.6711C162.018 29.0144 163.361 27.6714 165.018 27.6714C165.432 27.6714 165.768 27.3357 165.768 26.9215C165.764 23.194 168.783 20.1692 172.51 20.1655C175.737 20.1623 178.515 22.4434 179.139 25.6092C179.169 25.7633 179.247 25.9041 179.361 26.0118C179.475 26.1194 179.621 26.1884 179.776 26.2091C181.827 26.501 183.252 28.3997 182.96 30.4498C182.698 32.2908 181.126 33.6615 179.266 33.6708H176.267V35.1706H179.266C182.166 35.1618 184.509 32.8045 184.5 29.9053C184.493 27.492 182.841 25.3945 180.496 24.8218Z" fill="black"/>
        <path d="M171.984 27.889L168.984 30.8887L170.042 31.946L171.767 30.2287V37.4204H173.266V30.2287L174.984 31.946L176.041 30.8887L173.041 27.889C172.749 27.5982 172.277 27.5982 171.984 27.889Z" fill="black"/>
    </g>
    <path d="M135.492 52.12C134.452 52.12 133.64 51.804 133.056 51.172C132.48 50.532 132.192 49.64 132.192 48.496V43.36H133.176V48.544C133.176 49.408 133.376 50.072 133.776 50.536C134.176 51 134.748 51.232 135.492 51.232C136.252 51.232 136.832 51.004 137.232 50.548C137.632 50.084 137.832 49.416 137.832 48.544V43.36H138.816V48.508C138.816 49.644 138.524 50.532 137.94 51.172C137.356 51.804 136.54 52.12 135.492 52.12ZM143.759 52.108C143.183 52.108 142.699 51.968 142.307 51.688C141.915 51.408 141.647 51.012 141.503 50.5L141.695 50.476V54.46H140.735V45.88H141.635V47.308L141.503 47.272C141.655 46.8 141.943 46.432 142.367 46.168C142.791 45.896 143.283 45.76 143.843 45.76C144.387 45.76 144.859 45.892 145.259 46.156C145.667 46.42 145.983 46.788 146.207 47.26C146.431 47.732 146.543 48.284 146.543 48.916C146.543 49.556 146.427 50.116 146.195 50.596C145.963 51.076 145.639 51.448 145.223 51.712C144.807 51.976 144.319 52.108 143.759 52.108ZM143.615 51.268C144.223 51.268 144.699 51.06 145.043 50.644C145.387 50.22 145.559 49.644 145.559 48.916C145.559 48.196 145.387 47.632 145.043 47.224C144.699 46.808 144.223 46.6 143.615 46.6C143.007 46.6 142.527 46.812 142.175 47.236C141.823 47.652 141.647 48.224 141.647 48.952C141.647 49.664 141.823 50.228 142.175 50.644C142.527 51.06 143.007 51.268 143.615 51.268ZM148.013 52V43.36H148.973V52H148.013ZM153.44 52.12C152.84 52.12 152.312 51.98 151.856 51.7C151.4 51.42 151.044 51.04 150.788 50.56C150.54 50.072 150.416 49.524 150.416 48.916C150.416 48.3 150.544 47.756 150.8 47.284C151.056 46.812 151.408 46.44 151.856 46.168C152.312 45.896 152.84 45.76 153.44 45.76C154.048 45.76 154.576 45.896 155.024 46.168C155.48 46.44 155.832 46.812 156.08 47.284C156.336 47.756 156.464 48.3 156.464 48.916C156.464 49.524 156.336 50.072 156.08 50.56C155.832 51.04 155.48 51.42 155.024 51.7C154.576 51.98 154.048 52.12 153.44 52.12ZM153.44 51.304C153.856 51.304 154.216 51.204 154.52 51.004C154.824 50.796 155.06 50.512 155.228 50.152C155.396 49.792 155.48 49.376 155.48 48.904C155.48 48.2 155.292 47.636 154.916 47.212C154.548 46.788 154.056 46.576 153.44 46.576C152.832 46.576 152.34 46.788 151.964 47.212C151.588 47.636 151.4 48.2 151.4 48.904C151.4 49.376 151.484 49.792 151.652 50.152C151.82 50.512 152.056 50.796 152.36 51.004C152.672 51.204 153.032 51.304 153.44 51.304ZM161.659 52C161.627 51.864 161.603 51.708 161.587 51.532C161.579 51.356 161.575 51.132 161.575 50.86H161.515V47.932C161.515 47.468 161.407 47.128 161.191 46.912C160.983 46.688 160.643 46.576 160.171 46.576C159.707 46.576 159.335 46.672 159.055 46.864C158.783 47.048 158.631 47.312 158.599 47.656H157.675C157.715 47.064 157.963 46.6 158.419 46.264C158.875 45.928 159.471 45.76 160.207 45.76C160.967 45.76 161.531 45.94 161.899 46.3C162.267 46.66 162.451 47.2 162.451 47.92V50.86C162.451 51.036 162.463 51.22 162.487 51.412C162.511 51.596 162.543 51.792 162.583 52H161.659ZM159.559 52.12C158.927 52.12 158.423 51.968 158.047 51.664C157.679 51.352 157.495 50.928 157.495 50.392C157.495 49.856 157.679 49.44 158.047 49.144C158.415 48.848 158.951 48.64 159.655 48.52L161.791 48.16V48.952L159.799 49.264C159.351 49.336 159.011 49.456 158.779 49.624C158.547 49.792 158.431 50.036 158.431 50.356C158.431 50.668 158.535 50.904 158.743 51.064C158.959 51.224 159.275 51.304 159.691 51.304C160.227 51.304 160.663 51.184 160.999 50.944C161.343 50.696 161.515 50.376 161.515 49.984L161.671 50.836C161.543 51.244 161.291 51.56 160.915 51.784C160.547 52.008 160.095 52.12 159.559 52.12ZM168.754 52V50.572L168.874 50.608C168.722 51.072 168.442 51.44 168.034 51.712C167.634 51.984 167.154 52.12 166.594 52.12C166.042 52.12 165.558 51.988 165.142 51.724C164.734 51.46 164.414 51.092 164.182 50.62C163.958 50.148 163.846 49.596 163.846 48.964C163.846 48.324 163.962 47.764 164.194 47.284C164.426 46.804 164.75 46.432 165.166 46.168C165.582 45.904 166.07 45.772 166.63 45.772C167.206 45.772 167.69 45.912 168.082 46.192C168.474 46.472 168.742 46.868 168.886 47.38L168.694 47.404V43.36H169.654V52H168.754ZM166.774 51.28C167.39 51.28 167.87 51.072 168.214 50.656C168.566 50.232 168.742 49.656 168.742 48.928C168.742 48.216 168.566 47.652 168.214 47.236C167.862 46.82 167.382 46.612 166.774 46.612C166.166 46.612 165.69 46.82 165.346 47.236C165.002 47.652 164.83 48.228 164.83 48.964C164.83 49.684 165.002 50.252 165.346 50.668C165.69 51.076 166.166 51.28 166.774 51.28ZM177.005 52.108C176.429 52.108 175.945 51.968 175.553 51.688C175.161 51.408 174.893 51.012 174.749 50.5L174.941 50.476V54.46H173.981V45.88H174.881V47.308L174.749 47.272C174.901 46.8 175.189 46.432 175.613 46.168C176.037 45.896 176.529 45.76 177.089 45.76C177.633 45.76 178.105 45.892 178.505 46.156C178.913 46.42 179.229 46.788 179.453 47.26C179.677 47.732 179.789 48.284 179.789 48.916C179.789 49.556 179.673 50.116 179.441 50.596C179.209 51.076 178.885 51.448 178.469 51.712C178.053 51.976 177.565 52.108 177.005 52.108ZM176.861 51.268C177.469 51.268 177.945 51.06 178.289 50.644C178.633 50.22 178.805 49.644 178.805 48.916C178.805 48.196 178.633 47.632 178.289 47.224C177.945 46.808 177.469 46.6 176.861 46.6C176.253 46.6 175.773 46.812 175.421 47.236C175.069 47.652 174.893 48.224 174.893 48.952C174.893 49.664 175.069 50.228 175.421 50.644C175.773 51.06 176.253 51.268 176.861 51.268ZM185.734 52V50.572L185.854 50.608C185.702 51.072 185.422 51.44 185.014 51.712C184.614 51.984 184.134 52.12 183.574 52.12C183.022 52.12 182.538 51.988 182.122 51.724C181.714 51.46 181.394 51.092 181.162 50.62C180.938 50.148 180.826 49.596 180.826 48.964C180.826 48.324 180.942 47.764 181.174 47.284C181.406 46.804 181.73 46.432 182.146 46.168C182.562 45.904 183.05 45.772 183.61 45.772C184.186 45.772 184.67 45.912 185.062 46.192C185.454 46.472 185.722 46.868 185.866 47.38L185.674 47.404V43.36H186.634V52H185.734ZM183.754 51.28C184.37 51.28 184.85 51.072 185.194 50.656C185.546 50.232 185.722 49.656 185.722 48.928C185.722 48.216 185.546 47.652 185.194 47.236C184.842 46.82 184.362 46.612 183.754 46.612C183.146 46.612 182.67 46.82 182.326 47.236C181.982 47.652 181.81 48.228 181.81 48.964C181.81 49.684 181.982 50.252 182.326 50.668C182.67 51.076 183.146 51.28 183.754 51.28ZM189.064 52V45.016C189.064 44.456 189.224 44.02 189.544 43.708C189.872 43.396 190.368 43.24 191.032 43.24C191.192 43.24 191.316 43.248 191.404 43.264C191.5 43.28 191.58 43.3 191.644 43.324V44.08C191.588 44.064 191.508 44.048 191.404 44.032C191.308 44.016 191.204 44.008 191.092 44.008C190.724 44.008 190.452 44.1 190.276 44.284C190.108 44.468 190.024 44.728 190.024 45.064V52H189.064ZM187.804 46.696V45.88H191.512V46.696H187.804ZM195.276 52V43.36H196.26V52H195.276ZM195.78 48.292V47.428H200.436V48.292H195.78ZM195.78 44.224V43.36H200.772V44.224H195.78ZM202.189 52V45.88H203.149V52H202.189ZM202.117 44.488V43.36H203.221V44.488H202.117ZM205.071 52V43.36H206.031V52H205.071ZM210.462 52.12C209.878 52.12 209.362 51.984 208.914 51.712C208.466 51.432 208.114 51.052 207.858 50.572C207.602 50.092 207.474 49.54 207.474 48.916C207.474 48.292 207.598 47.744 207.846 47.272C208.102 46.792 208.458 46.42 208.914 46.156C209.37 45.892 209.894 45.76 210.486 45.76C211.054 45.76 211.546 45.884 211.962 46.132C212.386 46.38 212.71 46.728 212.934 47.176C213.166 47.624 213.282 48.152 213.282 48.76C213.282 48.84 213.278 48.916 213.27 48.988C213.27 49.06 213.262 49.14 213.246 49.228H208.194V48.424H212.658L212.346 48.868C212.346 48.132 212.182 47.568 211.854 47.176C211.534 46.776 211.078 46.576 210.486 46.576C209.878 46.576 209.386 46.788 209.01 47.212C208.642 47.628 208.458 48.192 208.458 48.904C208.458 49.632 208.642 50.216 209.01 50.656C209.386 51.088 209.886 51.304 210.51 51.304C210.902 51.304 211.246 51.22 211.542 51.052C211.838 50.876 212.054 50.628 212.19 50.308H213.102C212.902 50.868 212.566 51.312 212.094 51.64C211.63 51.96 211.086 52.12 210.462 52.12Z" fill="#454545"/>
    <path d="M143.84 66V60.24H144.848L146.928 65.792H146.624L148.688 60.24H149.712V66H149.064V60.584H149.152L147.144 66H146.36L144.352 60.632H144.44V66H143.84ZM153.546 66C153.525 65.9093 153.509 65.8053 153.498 65.688C153.493 65.5707 153.49 65.4213 153.49 65.24H153.45V63.288C153.45 62.9787 153.378 62.752 153.234 62.608C153.096 62.4587 152.869 62.384 152.554 62.384C152.245 62.384 151.997 62.448 151.81 62.576C151.629 62.6987 151.528 62.8747 151.506 63.104H150.89C150.917 62.7093 151.082 62.4 151.386 62.176C151.69 61.952 152.088 61.84 152.578 61.84C153.085 61.84 153.461 61.96 153.706 62.2C153.952 62.44 154.074 62.8 154.074 63.28V65.24C154.074 65.3573 154.082 65.48 154.098 65.608C154.114 65.7307 154.136 65.8613 154.162 66H153.546ZM152.146 66.08C151.725 66.08 151.389 65.9787 151.138 65.776C150.893 65.568 150.77 65.2853 150.77 64.928C150.77 64.5707 150.893 64.2933 151.138 64.096C151.384 63.8987 151.741 63.76 152.21 63.68L153.634 63.44V63.968L152.306 64.176C152.008 64.224 151.781 64.304 151.626 64.416C151.472 64.528 151.394 64.6907 151.394 64.904C151.394 65.112 151.464 65.2693 151.602 65.376C151.746 65.4827 151.957 65.536 152.234 65.536C152.592 65.536 152.882 65.456 153.106 65.296C153.336 65.1307 153.45 64.9173 153.45 64.656L153.554 65.224C153.469 65.496 153.301 65.7067 153.05 65.856C152.805 66.0053 152.504 66.08 152.146 66.08ZM158.006 66L156.654 64.104L155.038 61.92H155.782L157.03 63.672L158.75 66H158.006ZM156.694 63.704L157.974 61.92H158.694L157.03 64.136L156.694 63.704ZM156.966 64.144L155.582 66H154.854L156.654 63.688L156.966 64.144ZM162.629 66.08C162.128 66.08 161.728 65.9653 161.429 65.736C161.131 65.5013 160.96 65.1707 160.917 64.744H161.533C161.571 65.0053 161.685 65.2053 161.877 65.344C162.069 65.4827 162.325 65.552 162.645 65.552C162.928 65.552 163.149 65.4987 163.309 65.392C163.469 65.2853 163.549 65.1333 163.549 64.936C163.549 64.7973 163.504 64.6773 163.413 64.576C163.323 64.4693 163.141 64.3813 162.869 64.312L162.213 64.144C161.84 64.048 161.56 63.9013 161.373 63.704C161.187 63.5013 161.093 63.2613 161.093 62.984C161.093 62.632 161.224 62.3547 161.485 62.152C161.747 61.944 162.101 61.84 162.549 61.84C162.992 61.84 163.352 61.9467 163.629 62.16C163.907 62.3733 164.064 62.6693 164.101 63.048H163.485C163.448 62.8293 163.347 62.6613 163.181 62.544C163.016 62.4267 162.797 62.368 162.525 62.368C162.264 62.368 162.061 62.4187 161.917 62.52C161.773 62.616 161.701 62.7547 161.701 62.936C161.701 63.0747 161.752 63.1947 161.853 63.296C161.96 63.3973 162.136 63.4827 162.381 63.552L163.021 63.728C163.4 63.8293 163.685 63.984 163.877 64.192C164.069 64.4 164.165 64.6507 164.165 64.944C164.165 65.3013 164.029 65.5813 163.757 65.784C163.485 65.9813 163.109 66.08 162.629 66.08ZM165.089 66V61.92H165.729V66H165.089ZM165.041 60.992V60.24H165.777V60.992H165.041ZM166.694 66V65.536L169.174 62.168L169.414 62.464H166.774V61.92H169.782V62.384L167.302 65.752L167.062 65.456H169.862V66H166.694ZM172.355 66.08C171.966 66.08 171.622 65.9893 171.323 65.808C171.024 65.6213 170.79 65.368 170.619 65.048C170.448 64.728 170.363 64.36 170.363 63.944C170.363 63.528 170.446 63.1627 170.611 62.848C170.782 62.528 171.019 62.28 171.323 62.104C171.627 61.928 171.976 61.84 172.371 61.84C172.75 61.84 173.078 61.9227 173.355 62.088C173.638 62.2533 173.854 62.4853 174.003 62.784C174.158 63.0827 174.235 63.4347 174.235 63.84C174.235 63.8933 174.232 63.944 174.227 63.992C174.227 64.04 174.222 64.0933 174.211 64.152H170.843V63.616H173.819L173.611 63.912C173.611 63.4213 173.502 63.0453 173.283 62.784C173.07 62.5173 172.766 62.384 172.371 62.384C171.966 62.384 171.638 62.5253 171.387 62.808C171.142 63.0853 171.019 63.4613 171.019 63.936C171.019 64.4213 171.142 64.8107 171.387 65.104C171.638 65.392 171.971 65.536 172.387 65.536C172.648 65.536 172.878 65.48 173.075 65.368C173.272 65.2507 173.416 65.0853 173.507 64.872H174.115C173.982 65.2453 173.758 65.5413 173.443 65.76C173.134 65.9733 172.771 66.08 172.355 66.08ZM174.956 66V65.176H175.78V66H174.956ZM174.956 62.96V62.136H175.78V62.96H174.956ZM180.324 66.08C179.754 66.08 179.298 65.928 178.956 65.624C178.615 65.3147 178.407 64.9147 178.332 64.424H179.036C179.106 64.7707 179.252 65.0373 179.476 65.224C179.706 65.4107 179.983 65.504 180.308 65.504C180.65 65.504 180.938 65.3973 181.172 65.184C181.412 64.9707 181.532 64.632 181.532 64.168C181.532 63.704 181.412 63.3573 181.172 63.128C180.938 62.8933 180.639 62.776 180.276 62.776C180.015 62.776 179.788 62.8293 179.596 62.936C179.404 63.0427 179.276 63.168 179.212 63.312H178.62L178.884 60.24H181.924V60.816H179.276L179.5 60.576L179.316 62.896L179.164 62.84C179.26 62.68 179.415 62.5413 179.628 62.424C179.842 62.3067 180.103 62.248 180.412 62.248C180.77 62.248 181.084 62.3253 181.356 62.48C181.634 62.6347 181.85 62.856 182.004 63.144C182.164 63.4267 182.244 63.768 182.244 64.168C182.244 64.568 182.164 64.912 182.004 65.2C181.85 65.4827 181.628 65.7013 181.34 65.856C181.058 66.0053 180.719 66.08 180.324 66.08ZM185.246 66.08C184.793 66.08 184.395 65.9547 184.054 65.704C183.718 65.448 183.454 65.096 183.262 64.648C183.075 64.1947 182.982 63.6773 182.982 63.096C182.982 62.5147 183.075 62.0053 183.262 61.568C183.449 61.1253 183.713 60.7813 184.054 60.536C184.395 60.2853 184.793 60.16 185.246 60.16C185.699 60.16 186.094 60.2853 186.43 60.536C186.771 60.7813 187.035 61.1253 187.222 61.568C187.414 62.0053 187.51 62.5147 187.51 63.096C187.51 63.6827 187.414 64.2 187.222 64.648C187.035 65.096 186.771 65.448 186.43 65.704C186.094 65.9547 185.699 66.08 185.246 66.08ZM185.246 65.504C185.571 65.504 185.849 65.408 186.078 65.216C186.307 65.0187 186.483 64.7413 186.606 64.384C186.729 64.0213 186.79 63.5893 186.79 63.088C186.79 62.592 186.729 62.168 186.606 61.816C186.489 61.464 186.315 61.1973 186.086 61.016C185.857 60.8293 185.577 60.736 185.246 60.736C184.915 60.736 184.635 60.8293 184.406 61.016C184.177 61.2027 184.001 61.472 183.878 61.824C183.761 62.1707 183.702 62.592 183.702 63.088C183.702 63.5893 183.763 64.0213 183.886 64.384C184.009 64.7467 184.185 65.024 184.414 65.216C184.643 65.408 184.921 65.504 185.246 65.504ZM190.2 66V60.24H191.208L193.288 65.792H192.984L195.048 60.24H196.072V66H195.424V60.584H195.512L193.504 66H192.72L190.712 60.632H190.8V66H190.2ZM197.882 66V65.456H199.722C200.074 65.456 200.354 65.36 200.562 65.168C200.77 64.976 200.874 64.7173 200.874 64.392C200.874 64.0453 200.764 63.768 200.546 63.56C200.327 63.352 200.034 63.248 199.666 63.248H197.882V62.72H199.578C199.94 62.72 200.223 62.632 200.426 62.456C200.628 62.28 200.73 62.032 200.73 61.712C200.73 61.4133 200.634 61.184 200.442 61.024C200.255 60.864 199.98 60.784 199.618 60.784H197.882V60.24H199.674C200.202 60.24 200.618 60.3653 200.922 60.616C201.231 60.8667 201.386 61.208 201.386 61.64C201.386 61.912 201.324 62.1547 201.202 62.368C201.079 62.5813 200.911 62.7493 200.698 62.872C200.484 62.9893 200.239 63.048 199.962 63.048L200.002 62.88C200.295 62.88 200.556 62.9493 200.786 63.088C201.02 63.2267 201.204 63.416 201.338 63.656C201.476 63.8907 201.546 64.16 201.546 64.464C201.546 64.768 201.471 65.0373 201.322 65.272C201.178 65.5013 200.972 65.68 200.706 65.808C200.439 65.936 200.13 66 199.778 66H197.882ZM197.45 66V60.24H198.106V66H197.45Z" fill="#6C6C6C"/>
    <rect x="128" y="74" width="89" height="18" rx="4" fill="#117C6F"/>
    <path d="M139.985 87V86.184H142.745C143.273 86.184 143.693 86.04 144.005 85.752C144.317 85.464 144.473 85.076 144.473 84.588C144.473 84.068 144.309 83.652 143.981 83.34C143.653 83.028 143.213 82.872 142.661 82.872H139.985V82.08H142.529C143.073 82.08 143.497 81.948 143.801 81.684C144.105 81.42 144.257 81.048 144.257 80.568C144.257 80.12 144.113 79.776 143.825 79.536C143.545 79.296 143.133 79.176 142.589 79.176H139.985V78.36H142.673C143.465 78.36 144.089 78.548 144.545 78.924C145.009 79.3 145.241 79.812 145.241 80.46C145.241 80.868 145.149 81.232 144.965 81.552C144.781 81.872 144.529 82.124 144.209 82.308C143.889 82.484 143.521 82.572 143.105 82.572L143.165 82.32C143.605 82.32 143.997 82.424 144.341 82.632C144.693 82.84 144.969 83.124 145.169 83.484C145.377 83.836 145.481 84.24 145.481 84.696C145.481 85.152 145.369 85.556 145.145 85.908C144.929 86.252 144.621 86.52 144.221 86.712C143.821 86.904 143.357 87 142.829 87H139.985ZM139.337 87V78.36H140.321V87H139.337ZM146.894 87V80.88H147.794V82.44H147.854V87H146.894ZM147.854 83.808L147.698 82.356C147.842 81.836 148.098 81.44 148.466 81.168C148.834 80.896 149.258 80.76 149.738 80.76C149.938 80.76 150.074 80.776 150.146 80.808V81.732C150.106 81.716 150.05 81.708 149.978 81.708C149.906 81.7 149.818 81.696 149.714 81.696C149.106 81.696 148.642 81.88 148.322 82.248C148.01 82.608 147.854 83.128 147.854 83.808ZM153.938 87.12C153.338 87.12 152.81 86.98 152.354 86.7C151.898 86.42 151.542 86.04 151.286 85.56C151.038 85.072 150.914 84.524 150.914 83.916C150.914 83.3 151.042 82.756 151.298 82.284C151.554 81.812 151.906 81.44 152.354 81.168C152.81 80.896 153.338 80.76 153.938 80.76C154.546 80.76 155.074 80.896 155.522 81.168C155.978 81.44 156.33 81.812 156.578 82.284C156.834 82.756 156.962 83.3 156.962 83.916C156.962 84.524 156.834 85.072 156.578 85.56C156.33 86.04 155.978 86.42 155.522 86.7C155.074 86.98 154.546 87.12 153.938 87.12ZM153.938 86.304C154.354 86.304 154.714 86.204 155.018 86.004C155.322 85.796 155.558 85.512 155.726 85.152C155.894 84.792 155.978 84.376 155.978 83.904C155.978 83.2 155.79 82.636 155.414 82.212C155.046 81.788 154.554 81.576 153.938 81.576C153.33 81.576 152.838 81.788 152.462 82.212C152.086 82.636 151.898 83.2 151.898 83.904C151.898 84.376 151.982 84.792 152.15 85.152C152.318 85.512 152.554 85.796 152.858 86.004C153.17 86.204 153.53 86.304 153.938 86.304ZM159.532 87L157.66 80.88H158.632L160.072 86.124H159.832L161.56 80.88H162.34L164.08 86.124H163.84L165.268 80.88H166.192L164.32 87H163.54L161.812 81.876H162.064L160.312 87H159.532ZM169.477 87.12C168.725 87.12 168.125 86.948 167.677 86.604C167.229 86.252 166.973 85.756 166.909 85.116H167.833C167.889 85.508 168.061 85.808 168.349 86.016C168.637 86.224 169.021 86.328 169.501 86.328C169.925 86.328 170.257 86.248 170.497 86.088C170.737 85.928 170.857 85.7 170.857 85.404C170.857 85.196 170.789 85.016 170.653 84.864C170.517 84.704 170.245 84.572 169.837 84.468L168.853 84.216C168.293 84.072 167.873 83.852 167.593 83.556C167.313 83.252 167.173 82.892 167.173 82.476C167.173 81.948 167.369 81.532 167.761 81.228C168.153 80.916 168.685 80.76 169.357 80.76C170.021 80.76 170.561 80.92 170.977 81.24C171.393 81.56 171.629 82.004 171.685 82.572H170.761C170.705 82.244 170.553 81.992 170.305 81.816C170.057 81.64 169.729 81.552 169.321 81.552C168.929 81.552 168.625 81.628 168.409 81.78C168.193 81.924 168.085 82.132 168.085 82.404C168.085 82.612 168.161 82.792 168.313 82.944C168.473 83.096 168.737 83.224 169.105 83.328L170.065 83.592C170.633 83.744 171.061 83.976 171.349 84.288C171.637 84.6 171.781 84.976 171.781 85.416C171.781 85.952 171.577 86.372 171.169 86.676C170.761 86.972 170.197 87.12 169.477 87.12ZM175.792 87.12C175.208 87.12 174.692 86.984 174.244 86.712C173.796 86.432 173.444 86.052 173.188 85.572C172.932 85.092 172.804 84.54 172.804 83.916C172.804 83.292 172.928 82.744 173.176 82.272C173.432 81.792 173.788 81.42 174.244 81.156C174.7 80.892 175.224 80.76 175.816 80.76C176.384 80.76 176.876 80.884 177.292 81.132C177.716 81.38 178.04 81.728 178.264 82.176C178.496 82.624 178.612 83.152 178.612 83.76C178.612 83.84 178.608 83.916 178.6 83.988C178.6 84.06 178.592 84.14 178.576 84.228H173.524V83.424H177.988L177.676 83.868C177.676 83.132 177.512 82.568 177.184 82.176C176.864 81.776 176.408 81.576 175.816 81.576C175.208 81.576 174.716 81.788 174.34 82.212C173.972 82.628 173.788 83.192 173.788 83.904C173.788 84.632 173.972 85.216 174.34 85.656C174.716 86.088 175.216 86.304 175.84 86.304C176.232 86.304 176.576 86.22 176.872 86.052C177.168 85.876 177.384 85.628 177.52 85.308H178.432C178.232 85.868 177.896 86.312 177.424 86.64C176.96 86.96 176.416 87.12 175.792 87.12ZM182.532 87V78.36H183.516V87H182.532ZM183.036 83.292V82.428H187.692V83.292H183.036ZM183.036 79.224V78.36H188.028V79.224H183.036ZM189.444 87V80.88H190.404V87H189.444ZM189.372 79.488V78.36H190.476V79.488H189.372ZM192.327 87V78.36H193.287V87H192.327ZM197.718 87.12C197.134 87.12 196.618 86.984 196.17 86.712C195.722 86.432 195.37 86.052 195.114 85.572C194.858 85.092 194.73 84.54 194.73 83.916C194.73 83.292 194.854 82.744 195.102 82.272C195.358 81.792 195.714 81.42 196.17 81.156C196.626 80.892 197.15 80.76 197.742 80.76C198.31 80.76 198.802 80.884 199.218 81.132C199.642 81.38 199.966 81.728 200.19 82.176C200.422 82.624 200.538 83.152 200.538 83.76C200.538 83.84 200.534 83.916 200.526 83.988C200.526 84.06 200.518 84.14 200.502 84.228H195.45V83.424H199.914L199.602 83.868C199.602 83.132 199.438 82.568 199.11 82.176C198.79 81.776 198.334 81.576 197.742 81.576C197.134 81.576 196.642 81.788 196.266 82.212C195.898 82.628 195.714 83.192 195.714 83.904C195.714 84.632 195.898 85.216 196.266 85.656C196.642 86.088 197.142 86.304 197.766 86.304C198.158 86.304 198.502 86.22 198.798 86.052C199.094 85.876 199.31 85.628 199.446 85.308H200.358C200.158 85.868 199.822 86.312 199.35 86.64C198.886 86.96 198.342 87.12 197.718 87.12ZM204.059 87.12C203.307 87.12 202.707 86.948 202.259 86.604C201.811 86.252 201.555 85.756 201.491 85.116H202.415C202.471 85.508 202.643 85.808 202.931 86.016C203.219 86.224 203.603 86.328 204.083 86.328C204.507 86.328 204.839 86.248 205.079 86.088C205.319 85.928 205.439 85.7 205.439 85.404C205.439 85.196 205.371 85.016 205.235 84.864C205.099 84.704 204.827 84.572 204.419 84.468L203.435 84.216C202.875 84.072 202.455 83.852 202.175 83.556C201.895 83.252 201.755 82.892 201.755 82.476C201.755 81.948 201.951 81.532 202.343 81.228C202.735 80.916 203.267 80.76 203.939 80.76C204.603 80.76 205.143 80.92 205.559 81.24C205.975 81.56 206.211 82.004 206.267 82.572H205.343C205.287 82.244 205.135 81.992 204.887 81.816C204.639 81.64 204.311 81.552 203.903 81.552C203.511 81.552 203.207 81.628 202.991 81.78C202.775 81.924 202.667 82.132 202.667 82.404C202.667 82.612 202.743 82.792 202.895 82.944C203.055 83.096 203.319 83.224 203.687 83.328L204.647 83.592C205.215 83.744 205.643 83.976 205.931 84.288C206.219 84.6 206.363 84.976 206.363 85.416C206.363 85.952 206.159 86.372 205.751 86.676C205.343 86.972 204.779 87.12 204.059 87.12Z" fill="white"/>
    <defs>
        <clipPath id="clip0_504_3409">
            <rect width="24" height="24" fill="white" transform="translate(160.5 16)"/>
        </clipPath>
    </defs>
</svg>
