<svg width="20" height="20" viewBox="0 0 20 20" fill="none" xmlns="http://www.w3.org/2000/svg">
    <path d="M17.8287 2.50227H17.0046V0.775937C17.0046 0.348828 16.6558 0 16.2287 0H5.44676C5.01969 0 4.67383 0.348828 4.67383 0.775937V16.7218C4.67383 17.1489 5.01969 17.4977 5.44676 17.4977H6.27383V19.2241C6.27383 19.6511 6.6227 20 7.04977 20H17.8287C18.2588 20 18.6046 19.6511 18.6046 19.2241V3.27816C18.6046 2.85113 18.2588 2.50227 17.8287 2.50227ZM16.5536 16.7218C16.5536 16.8993 16.4062 17.0466 16.2288 17.0466H5.44676C5.2693 17.0466 5.12496 16.8992 5.12496 16.7218V0.775937C5.12496 0.595469 5.26934 0.451133 5.44676 0.451133H16.2287C16.4062 0.451133 16.5535 0.595508 16.5535 0.775937V16.7218H16.5536Z" fill="#117C6F"/>
    <path d="M7.49477 1.45264C6.67672 1.45264 6.01207 2.11432 6.01207 2.93232C6.01207 3.74736 6.67672 4.41201 7.49477 4.41201C8.3098 4.41201 8.97445 3.74736 8.97445 2.93232C8.97449 2.11432 8.3098 1.45264 7.49477 1.45264ZM8.12336 2.76994L7.47676 3.41354C7.43465 3.45865 7.3775 3.47971 7.31734 3.47971C7.28771 3.47982 7.25835 3.47402 7.23098 3.46266C7.20361 3.4513 7.17877 3.4346 7.15793 3.41354L6.8632 3.11877C6.77598 3.03158 6.77598 2.88721 6.8632 2.80002C6.90626 2.75808 6.96399 2.7346 7.0241 2.7346C7.08421 2.7346 7.14194 2.75808 7.185 2.80002L7.31734 2.93537L7.80457 2.45111C7.82524 2.42972 7.85 2.4127 7.87739 2.40107C7.90477 2.38945 7.93422 2.38346 7.96396 2.38346C7.99371 2.38346 8.02316 2.38945 8.05054 2.40107C8.07793 2.4127 8.10269 2.42972 8.12336 2.45111C8.21055 2.53838 8.21055 2.67971 8.12336 2.76994ZM15.4381 1.84369H9.81871C9.75962 1.84479 9.70332 1.86904 9.66192 1.91122C9.62052 1.95339 9.59732 2.01014 9.59732 2.06924C9.59732 2.12834 9.62052 2.18508 9.66192 2.22726C9.70332 2.26944 9.75962 2.29369 9.81871 2.29479H15.4381C15.4972 2.29369 15.5535 2.26944 15.5949 2.22726C15.6363 2.18508 15.6595 2.12834 15.6595 2.06924C15.6595 2.01014 15.6363 1.95339 15.5949 1.91122C15.5535 1.86904 15.4972 1.84479 15.4381 1.84369ZM15.4381 2.70596H9.81871C9.75962 2.70706 9.70332 2.7313 9.66192 2.77348C9.62052 2.81566 9.59732 2.8724 9.59732 2.9315C9.59732 2.99061 9.62052 3.04735 9.66192 3.08953C9.70332 3.1317 9.75962 3.15595 9.81871 3.15705H15.4381C15.4972 3.15595 15.5535 3.1317 15.5949 3.08953C15.6363 3.04735 15.6595 2.99061 15.6595 2.9315C15.6595 2.8724 15.6363 2.81566 15.5949 2.77348C15.5535 2.7313 15.4972 2.70706 15.4381 2.70596ZM9.81871 4.01971H13.2797C13.3388 4.01861 13.3951 3.99436 13.4365 3.95218C13.4779 3.91 13.5011 3.85326 13.5011 3.79416C13.5011 3.73506 13.4779 3.67832 13.4365 3.63614C13.3951 3.59396 13.3388 3.56971 13.2797 3.56861H9.81871C9.75962 3.56971 9.70332 3.59396 9.66192 3.63614C9.62052 3.67832 9.59732 3.73506 9.59732 3.79416C9.59732 3.85326 9.62052 3.91 9.66192 3.95218C9.70332 3.99436 9.75962 4.01861 9.81871 4.01971ZM7.49477 5.32936C6.67672 5.32936 6.01207 5.994 6.01207 6.80904C6.01207 7.62713 6.67672 8.28877 7.49477 8.28877C8.3098 8.28877 8.97445 7.62713 8.97445 6.80904C8.97449 5.994 8.3098 5.32936 7.49477 5.32936ZM8.12336 6.64662L7.47676 7.29022C7.43465 7.33529 7.3775 7.35639 7.31734 7.35639C7.28771 7.35649 7.25835 7.35069 7.23098 7.33933C7.20361 7.32797 7.17878 7.31127 7.15793 7.29022L6.8632 6.99549C6.77598 6.90826 6.77598 6.76693 6.8632 6.6767C6.90625 6.63473 6.96398 6.61124 7.0241 6.61124C7.08422 6.61124 7.14196 6.63473 7.185 6.6767L7.31734 6.81201L7.80457 6.32787C7.8918 6.24061 8.03613 6.24061 8.12336 6.32787C8.21055 6.41506 8.21055 6.55943 8.12336 6.64662ZM15.4381 5.72143H9.81871C9.75962 5.72253 9.70332 5.74677 9.66192 5.78895C9.62052 5.83113 9.59732 5.88787 9.59732 5.94697C9.59732 6.00607 9.62052 6.06282 9.66192 6.10499C9.70332 6.14717 9.75962 6.17142 9.81871 6.17252H15.4381C15.4972 6.17142 15.5535 6.14717 15.5949 6.10499C15.6363 6.06282 15.6595 6.00607 15.6595 5.94697C15.6595 5.88787 15.6363 5.83113 15.5949 5.78895C15.5535 5.74677 15.4972 5.72253 15.4381 5.72143ZM15.4381 6.58373H9.81871C9.75962 6.58483 9.70332 6.60908 9.66192 6.65126C9.62052 6.69343 9.59732 6.75018 9.59732 6.80928C9.59732 6.86838 9.62052 6.92512 9.66192 6.9673C9.70332 7.00948 9.75962 7.03372 9.81871 7.03482H15.4381C15.4972 7.03372 15.5535 7.00948 15.5949 6.9673C15.6363 6.92512 15.6595 6.86838 15.6595 6.80928C15.6595 6.75018 15.6363 6.69343 15.5949 6.65126C15.5535 6.60908 15.4972 6.58483 15.4381 6.58373ZM9.81871 7.89748H13.2797C13.3388 7.89638 13.3951 7.87213 13.4365 7.82996C13.4779 7.78778 13.5011 7.73104 13.5011 7.67193C13.5011 7.61283 13.4779 7.55609 13.4365 7.51391C13.3951 7.47173 13.3388 7.44749 13.2797 7.44639H9.81871C9.75962 7.44749 9.70332 7.47173 9.66192 7.51391C9.62052 7.55609 9.59732 7.61283 9.59732 7.67193C9.59732 7.73104 9.62052 7.78778 9.66192 7.82996C9.70332 7.87213 9.75962 7.89638 9.81871 7.89748ZM7.49477 9.20604C6.67672 9.20604 6.01207 9.87068 6.01207 10.6858C6.01207 11.5038 6.67672 12.1685 7.49477 12.1685C8.3098 12.1685 8.97445 11.5038 8.97445 10.6858C8.97449 9.87068 8.3098 9.20604 7.49477 9.20604ZM8.12336 10.5233L7.47676 11.1699C7.45585 11.1909 7.431 11.2076 7.40365 11.2189C7.37629 11.2303 7.34696 11.2361 7.31734 11.2362C7.2602 11.2362 7.20305 11.2121 7.15793 11.1699L6.8632 10.8752C6.77598 10.785 6.77598 10.6437 6.8632 10.5565C6.95344 10.4662 7.09477 10.4662 7.185 10.5565L7.31734 10.6918L7.80457 10.2046C7.8918 10.1173 8.03613 10.1173 8.12336 10.2046C8.21055 10.2947 8.21055 10.4361 8.12336 10.5233ZM15.4381 9.5992H9.81871C9.75962 9.6003 9.70332 9.62455 9.66192 9.66672C9.62052 9.7089 9.59732 9.76564 9.59732 9.82475C9.59732 9.88385 9.62052 9.94059 9.66192 9.98277C9.70332 10.0249 9.75962 10.0492 9.81871 10.0503H15.4381C15.4972 10.0492 15.5535 10.0249 15.5949 9.98277C15.6363 9.94059 15.6595 9.88385 15.6595 9.82475C15.6595 9.76564 15.6363 9.7089 15.5949 9.66672C15.5535 9.62455 15.4972 9.6003 15.4381 9.5992ZM15.4381 10.4615H9.81871C9.75962 10.4626 9.70332 10.4868 9.66192 10.529C9.62052 10.5712 9.59732 10.6279 9.59732 10.6871C9.59732 10.7462 9.62052 10.8029 9.66192 10.8451C9.70332 10.8873 9.75962 10.9115 9.81871 10.9126H15.4381C15.4972 10.9115 15.5535 10.8873 15.5949 10.8451C15.6363 10.8029 15.6595 10.7462 15.6595 10.6871C15.6595 10.6279 15.6363 10.5712 15.5949 10.529C15.5535 10.4868 15.4972 10.4626 15.4381 10.4615ZM9.81871 11.7753H13.2797C13.3388 11.7742 13.3951 11.7499 13.4365 11.7077C13.4779 11.6656 13.5011 11.6088 13.5011 11.5497C13.5011 11.4906 13.4779 11.4339 13.4365 11.3917C13.3951 11.3495 13.3388 11.3253 13.2797 11.3242H9.81871C9.69418 11.3242 9.59316 11.4252 9.59316 11.5497C9.59316 11.6742 9.69418 11.7753 9.81871 11.7753ZM7.49477 13.0857C6.67672 13.0857 6.01207 13.7474 6.01207 14.5654C6.01207 15.3804 6.67672 16.0451 7.49477 16.0451C8.3098 16.0451 8.97445 15.3804 8.97445 14.5654C8.97449 13.7474 8.3098 13.0857 7.49477 13.0857ZM8.12336 14.403L7.47676 15.0467C7.43449 15.089 7.37715 15.1128 7.31734 15.1128C7.25765 15.1122 7.20052 15.0885 7.15793 15.0467L6.8632 14.7519C6.77598 14.6647 6.77598 14.5203 6.8632 14.4331C6.90626 14.3912 6.96399 14.3677 7.0241 14.3677C7.08421 14.3677 7.14194 14.3912 7.185 14.4331L7.31734 14.5685L7.80457 14.0842C7.82524 14.0628 7.85 14.0458 7.87739 14.0342C7.90477 14.0226 7.93422 14.0166 7.96396 14.0166C7.99371 14.0166 8.02316 14.0226 8.05054 14.0342C8.07793 14.0458 8.10269 14.0628 8.12336 14.0842C8.21055 14.1714 8.21055 14.3128 8.12336 14.403ZM15.4381 13.4767H9.81871C9.75962 13.4778 9.70332 13.502 9.66192 13.5442C9.62052 13.5864 9.59732 13.6431 9.59732 13.7022C9.59732 13.7613 9.62052 13.8181 9.66192 13.8602C9.70332 13.9024 9.75962 13.9267 9.81871 13.9278H15.4381C15.4972 13.9267 15.5535 13.9024 15.5949 13.8602C15.6363 13.8181 15.6595 13.7613 15.6595 13.7022C15.6595 13.6431 15.6363 13.5864 15.5949 13.5442C15.5535 13.502 15.4972 13.4778 15.4381 13.4767ZM15.4381 14.3393H9.81871C9.75962 14.3404 9.70332 14.3646 9.66192 14.4068C9.62052 14.449 9.59732 14.5057 9.59732 14.5648C9.59732 14.6239 9.62052 14.6807 9.66192 14.7228C9.70332 14.765 9.75962 14.7893 9.81871 14.7904H15.4381C15.4972 14.7893 15.5535 14.765 15.5949 14.7228C15.6363 14.6807 15.6595 14.6239 15.6595 14.5648C15.6595 14.5057 15.6363 14.449 15.5949 14.4068C15.5535 14.3646 15.4972 14.3404 15.4381 14.3393ZM13.2797 15.2019H9.81871C9.75962 15.203 9.70332 15.2272 9.66192 15.2694C9.62052 15.3116 9.59732 15.3683 9.59732 15.4274C9.59732 15.4865 9.62052 15.5433 9.66192 15.5855C9.70332 15.6276 9.75962 15.6519 9.81871 15.653H13.2797C13.3395 15.653 13.3969 15.6292 13.4392 15.5869C13.4815 15.5446 13.5052 15.4873 13.5052 15.4274C13.5052 15.3676 13.4815 15.3103 13.4392 15.268C13.3969 15.2257 13.3395 15.2019 13.2797 15.2019ZM3.74742 6.58045L2.79703 4.27975C2.72484 4.11131 2.44816 4.11131 2.37898 4.27975C2.15945 4.81811 1.4316 6.55943 1.40754 6.65264C1.40152 6.67072 1.39551 6.68877 1.39551 6.70982V18.2707C1.39551 18.7279 1.76543 19.0978 2.22258 19.0978H2.9534C3.41055 19.0978 3.78047 18.7279 3.78047 18.2707C3.78648 8.76393 3.78648 6.92939 3.78648 6.72783V6.70682C3.78652 6.65865 3.77148 6.61654 3.74742 6.58045ZM2.58652 4.95643L3.21809 6.48424H1.95492L2.58652 4.95643ZM3.32938 18.2707C3.32938 18.4782 3.16094 18.6466 2.95344 18.6466H2.22258C2.01508 18.6466 1.84664 18.4782 1.84664 18.2707V17.4587H3.32934L3.32938 18.2707Z" fill="#117C6F"/>
</svg>
