<svg width="20" height="20" viewBox="0 0 20 20" fill="none" xmlns="http://www.w3.org/2000/svg">
    <g clip-path="url(#clip0_1116_10738)">
        <path d="M16.228 -0.0498047C16.6833 -0.0498047 17.0542 0.32012 17.0542 0.775391V2.45312H17.8296C18.2848 2.45312 18.6558 2.82407 18.6558 3.2793V19.2246C18.6558 19.6799 18.2848 20.0498 17.8296 20.0498H7.04932C6.59404 20.0498 6.22412 19.6798 6.22412 19.2246V17.5469H5.44775C4.99246 17.5469 4.62256 17.1759 4.62256 16.7207V0.775391C4.62256 0.320119 4.99252 -0.0498046 5.44775 -0.0498047H16.228ZM17.0542 16.7207C17.0542 17.1759 16.6833 17.5469 16.228 17.5469H6.7749V19.2246C6.7749 19.3759 6.89806 19.499 7.04932 19.499H17.8296C17.9809 19.499 18.104 19.3758 18.104 19.2246V3.2793C18.104 3.12804 17.9808 3.00488 17.8296 3.00488H17.0542V16.7207ZM5.44775 0.500977C5.2965 0.500977 5.17334 0.624138 5.17334 0.775391V16.7207C5.17334 16.872 5.29656 16.9951 5.44775 16.9951H16.228C16.3792 16.9951 16.5024 16.872 16.5024 16.7207V0.775391C16.5024 0.624138 16.3793 0.500977 16.228 0.500977H5.44775Z" fill="#454545" stroke="#454545" stroke-width="0.1"/>
        <path d="M7.49482 1.45117C6.67744 1.45117 6.01221 2.11523 6.01221 2.93145C6.01221 3.74793 6.67744 4.41199 7.49482 4.41199C8.31104 4.41199 8.9751 3.74793 8.9751 2.93145C8.9751 2.11523 8.31104 1.45117 7.49482 1.45117ZM7.49482 3.96086C6.92592 3.96086 6.46334 3.49914 6.46334 2.93145C6.46334 2.36402 6.92592 1.9023 7.49482 1.9023C8.06225 1.9023 8.52397 2.36402 8.52397 2.93145C8.52397 3.49918 8.06229 3.96086 7.49482 3.96086Z" fill="#454545"/>
        <path d="M7.49463 5.27911C8.33845 5.27911 9.0249 5.96556 9.0249 6.80939C9.02482 7.65341 8.33841 8.33966 7.49463 8.33966C6.64984 8.33955 5.96249 7.65342 5.9624 6.80939C5.9624 5.96555 6.6498 5.27922 7.49463 5.27911ZM7.49463 5.8299C6.95333 5.83 6.51318 6.26975 6.51318 6.80939C6.51327 7.34924 6.95339 7.78877 7.49463 7.78888C8.03441 7.78888 8.47404 7.34944 8.47412 6.80939C8.47412 6.26958 8.03444 5.8299 7.49463 5.8299ZM13.2808 3.51837C13.3529 3.51977 13.4216 3.5499 13.4722 3.60138C13.5225 3.65281 13.5512 3.72177 13.5513 3.79376C13.5513 3.86595 13.5227 3.9356 13.4722 3.98712C13.4216 4.0386 13.3529 4.06776 13.2808 4.06915H9.81787C9.74576 4.06781 9.67703 4.03855 9.62646 3.98712C9.57589 3.93559 9.54736 3.86596 9.54736 3.79376C9.54744 3.72168 9.57597 3.65283 9.62646 3.60138C9.67704 3.54985 9.74568 3.51972 9.81787 3.51837H13.2808ZM7.96338 2.33478C8.03607 2.33507 8.10533 2.36443 8.15674 2.41583C8.20814 2.46724 8.23751 2.5365 8.23779 2.60919C8.23803 2.68181 8.20962 2.75177 8.15869 2.80353L7.51318 3.44904C7.48773 3.4745 7.45757 3.4948 7.42432 3.50861C7.39095 3.52243 7.35497 3.52913 7.31885 3.52911C7.28272 3.52914 7.24676 3.52241 7.21338 3.50861C7.17995 3.49475 7.1491 3.47464 7.12354 3.44904L6.82959 3.15411C6.72186 3.04672 6.72199 2.87207 6.82959 2.76447C6.85508 2.73906 6.88521 2.71868 6.91846 2.7049C6.95186 2.69105 6.98777 2.6844 7.02393 2.68439C7.06007 2.68439 7.096 2.69108 7.12939 2.7049C7.16283 2.71875 7.19366 2.73887 7.21924 2.76447L7.31885 2.86407L7.76904 2.41388C7.82079 2.36296 7.89077 2.33455 7.96338 2.33478ZM15.439 2.65607C15.511 2.65741 15.5798 2.68671 15.6304 2.7381C15.6809 2.78963 15.7095 2.85926 15.7095 2.93146C15.7095 3.00366 15.6809 3.07329 15.6304 3.12482C15.5798 3.1762 15.511 3.2055 15.439 3.20685H9.81787C9.74583 3.20551 9.67701 3.17615 9.62646 3.12482C9.57589 3.07329 9.54736 3.00366 9.54736 2.93146C9.54736 2.85926 9.57589 2.78963 9.62646 2.7381C9.67701 2.68677 9.74583 2.65741 9.81787 2.65607H15.439ZM15.439 1.79376C15.5111 1.79511 15.5798 1.8244 15.6304 1.87579C15.6809 1.92732 15.7095 1.99695 15.7095 2.06915C15.7095 2.14134 15.6809 2.21099 15.6304 2.26251C15.5798 2.31389 15.511 2.3432 15.439 2.34454H9.81787C9.74584 2.3432 9.67701 2.31383 9.62646 2.26251C9.5759 2.21099 9.54737 2.14134 9.54736 2.06915C9.54736 1.99695 9.57589 1.92732 9.62646 1.87579C9.67701 1.82445 9.74582 1.7951 9.81787 1.79376H15.439Z" fill="#454545" stroke="#454545" stroke-width="0.1"/>
        <path d="M7.49463 9.15686C8.33845 9.15686 9.0249 9.84331 9.0249 10.6871C9.02482 11.5309 8.3384 12.2174 7.49463 12.2174C6.64985 12.2173 5.96249 11.5309 5.9624 10.6871C5.9624 9.8433 6.6498 9.15697 7.49463 9.15686ZM7.49463 9.70764C6.95333 9.70775 6.51318 10.1475 6.51318 10.6871C6.51329 11.2267 6.95339 11.6655 7.49463 11.6656C8.03441 11.6656 8.47402 11.2269 8.47412 10.6871C8.47412 10.1473 8.03444 9.70764 7.49463 9.70764ZM13.2808 7.39612C13.3529 7.39751 13.4216 7.42765 13.4722 7.47913C13.5225 7.53056 13.5512 7.59952 13.5513 7.67151C13.5513 7.7437 13.5227 7.81334 13.4722 7.86487C13.4216 7.91635 13.3529 7.9455 13.2808 7.9469H9.81787C9.74576 7.94556 9.67703 7.91629 9.62646 7.86487C9.57589 7.81334 9.54736 7.74371 9.54736 7.67151C9.54744 7.59943 9.57597 7.53058 9.62646 7.47913C9.67704 7.4276 9.74568 7.39746 9.81787 7.39612H13.2808ZM7.96338 6.21155C8.03641 6.21157 8.10606 6.24096 8.15771 6.2926C8.20936 6.34426 8.23876 6.41389 8.23877 6.48694C8.23878 6.56001 8.20938 6.63057 8.15771 6.68225L7.51318 7.32678C7.45948 7.38032 7.38924 7.4068 7.31885 7.40686C7.24827 7.40686 7.17733 7.38055 7.12354 7.32678L6.82959 7.03186C6.80405 7.00635 6.7829 6.97633 6.76904 6.94299C6.75524 6.9097 6.74859 6.87356 6.74854 6.83752C6.74854 6.80152 6.75533 6.76534 6.76904 6.73206C6.7829 6.69862 6.80399 6.66779 6.82959 6.64221C6.85508 6.61676 6.88518 6.59646 6.91846 6.58264C6.95186 6.5688 6.98777 6.56117 7.02393 6.56116C7.06011 6.56116 7.09597 6.56879 7.12939 6.58264C7.16283 6.5965 7.19366 6.61661 7.21924 6.64221L7.31885 6.74182L7.76807 6.2926C7.81973 6.24092 7.8903 6.21156 7.96338 6.21155ZM15.439 6.53381C15.5111 6.53516 15.5798 6.56445 15.6304 6.61584C15.6809 6.66737 15.7095 6.737 15.7095 6.8092C15.7095 6.88139 15.6809 6.95105 15.6304 7.00256C15.5798 7.05394 15.511 7.08325 15.439 7.08459H9.81787C9.74584 7.08325 9.67701 7.05388 9.62646 7.00256C9.5759 6.95105 9.54737 6.88139 9.54736 6.8092C9.54736 6.737 9.57589 6.66737 9.62646 6.61584C9.67701 6.5645 9.74582 6.53515 9.81787 6.53381H15.439ZM15.439 5.67151C15.5111 5.67285 15.5798 5.70214 15.6304 5.75354C15.6809 5.80507 15.7095 5.8747 15.7095 5.9469C15.7095 6.01909 15.6809 6.08874 15.6304 6.14026C15.5798 6.19163 15.511 6.22095 15.439 6.22229H9.81787C9.74584 6.22095 9.67701 6.19157 9.62646 6.14026C9.5759 6.08874 9.54737 6.01909 9.54736 5.9469C9.54736 5.8747 9.57589 5.80507 9.62646 5.75354C9.67701 5.7022 9.74582 5.67285 9.81787 5.67151H15.439Z" fill="#454545" stroke="#454545" stroke-width="0.1"/>
        <path d="M7.49463 13.0347C8.33845 13.0347 9.0249 13.7211 9.0249 14.5649C9.0248 15.4087 8.33839 16.0952 7.49463 16.0952C6.64986 16.0951 5.96251 15.4087 5.9624 14.5649C5.9624 13.7211 6.6498 13.0348 7.49463 13.0347ZM7.49463 13.5854C6.95333 13.5856 6.51318 14.0253 6.51318 14.5649C6.51329 15.1045 6.95339 15.5434 7.49463 15.5435C8.03441 15.5435 8.47402 15.1047 8.47412 14.5649C8.47412 14.0251 8.03444 13.5854 7.49463 13.5854ZM13.2808 11.2739C13.3529 11.2753 13.4216 11.3055 13.4722 11.3569C13.5225 11.4084 13.5512 11.4773 13.5513 11.5493C13.5513 11.6215 13.5227 11.6912 13.4722 11.7427C13.4216 11.7942 13.3529 11.8233 13.2808 11.8247H9.81787C9.74576 11.8234 9.67703 11.7941 9.62646 11.7427C9.57589 11.6911 9.54736 11.6215 9.54736 11.5493C9.54745 11.4772 9.57597 11.4084 9.62646 11.3569C9.67704 11.3054 9.74568 11.2753 9.81787 11.2739H13.2808ZM7.96338 10.0894C7.99952 10.0894 8.03545 10.096 8.06885 10.1099C8.10228 10.1237 8.13213 10.1448 8.15771 10.1704C8.18328 10.196 8.20442 10.2259 8.21826 10.2593C8.23208 10.2927 8.23876 10.3286 8.23877 10.3647C8.23877 10.4009 8.23207 10.4368 8.21826 10.4702C8.20442 10.5036 8.1833 10.5345 8.15771 10.5601L7.51318 11.2046C7.45948 11.2581 7.38924 11.2846 7.31885 11.2847C7.24827 11.2847 7.17733 11.2584 7.12354 11.2046L6.82959 10.9097C6.80405 10.8842 6.7829 10.8541 6.76904 10.8208C6.75524 10.7875 6.74859 10.7514 6.74854 10.7153C6.74854 10.6793 6.75533 10.6431 6.76904 10.6099C6.7829 10.5764 6.80399 10.5456 6.82959 10.52C6.85508 10.4946 6.88518 10.4743 6.91846 10.4604C6.95186 10.4466 6.98777 10.439 7.02393 10.439C7.06011 10.439 7.09597 10.4466 7.12939 10.4604C7.16283 10.4743 7.19366 10.4944 7.21924 10.52L7.31885 10.6196L7.76807 10.1704C7.79365 10.1448 7.82448 10.1237 7.85791 10.1099C7.89128 10.0961 7.92727 10.0894 7.96338 10.0894ZM15.439 10.4116C15.5111 10.413 15.5798 10.4423 15.6304 10.4937C15.6809 10.5452 15.7095 10.6148 15.7095 10.687C15.7095 10.7592 15.6809 10.8289 15.6304 10.8804C15.5798 10.9317 15.511 10.9611 15.439 10.9624H9.81787C9.74584 10.9611 9.67701 10.9317 9.62646 10.8804C9.5759 10.8289 9.54737 10.7592 9.54736 10.687C9.54736 10.6148 9.57589 10.5452 9.62646 10.4937C9.67701 10.4423 9.74582 10.413 9.81787 10.4116H15.439ZM15.439 9.54932C15.5111 9.55066 15.5798 9.57995 15.6304 9.63135C15.6809 9.68288 15.7095 9.75251 15.7095 9.82471C15.7095 9.89689 15.6809 9.96655 15.6304 10.0181C15.5798 10.0694 15.511 10.0988 15.439 10.1001H9.81787C9.74584 10.0988 9.67701 10.0694 9.62646 10.0181C9.5759 9.96655 9.54737 9.89689 9.54736 9.82471C9.54736 9.75251 9.57589 9.68287 9.62646 9.63135C9.67701 9.58001 9.74582 9.55066 9.81787 9.54932H15.439Z" fill="#454545" stroke="#454545" stroke-width="0.1"/>
        <path d="M2.58691 4.10345C2.68798 4.10345 2.79701 4.1528 2.8418 4.26068L3.79199 6.56049C3.81996 6.60375 3.83512 6.65343 3.83594 6.70502L3.83691 6.70599V6.99213C3.83639 7.75419 3.83473 10.349 3.83008 18.2704C3.83008 18.7542 3.43687 19.1474 2.95312 19.1474H2.22168C1.73793 19.1474 1.34477 18.7542 1.34473 18.2704V6.7099C1.34473 6.68073 1.35444 6.65299 1.3584 6.63861C1.36243 6.62367 1.37745 6.58295 1.39941 6.52728C1.4222 6.46954 1.45365 6.39113 1.49121 6.29877C1.5663 6.11412 1.66633 5.87107 1.77246 5.6142C1.98495 5.09989 2.22164 4.52953 2.33203 4.26068H2.33301C2.37777 4.15299 2.48598 4.10358 2.58691 4.10345ZM1.89551 18.2704C1.89551 18.4502 2.04195 18.5966 2.22168 18.5966H2.95312C3.13285 18.5966 3.2793 18.4502 3.2793 18.2704V17.5097H1.89551V18.2704ZM1.89551 16.9589H3.2793V6.98529H1.89551V16.9589ZM13.2803 15.1513C13.3524 15.1526 13.4211 15.1829 13.4717 15.2343C13.5223 15.2858 13.5508 15.3555 13.5508 15.4277C13.5507 15.4998 13.5222 15.5686 13.4717 15.6201C13.4211 15.6716 13.3525 15.7017 13.2803 15.7031H9.81738C9.74528 15.7017 9.6765 15.6715 9.62598 15.6201C9.57561 15.5686 9.54696 15.4997 9.54688 15.4277C9.54688 15.3555 9.57544 15.2858 9.62598 15.2343C9.6765 15.1828 9.74528 15.1527 9.81738 15.1513H13.2803ZM7.96289 13.9667C7.99892 13.9667 8.03505 13.9735 8.06836 13.9872C8.10179 14.0011 8.13262 14.0222 8.1582 14.0478C8.18365 14.0733 8.20396 14.1034 8.21777 14.1367C8.23161 14.17 8.23924 14.206 8.23926 14.2421C8.23926 14.2783 8.2316 14.3142 8.21777 14.3476C8.20392 14.381 8.18381 14.4119 8.1582 14.4374L7.51367 15.082C7.48809 15.1076 7.45727 15.1277 7.42383 15.1415C7.39041 15.1554 7.35453 15.163 7.31836 15.163C7.28223 15.163 7.24627 15.1554 7.21289 15.1415C7.17962 15.1277 7.14951 15.1075 7.12402 15.082L6.8291 14.787C6.80365 14.7615 6.78334 14.7315 6.76953 14.6982C6.75568 14.6648 6.74805 14.6289 6.74805 14.5927C6.74805 14.5565 6.75567 14.5207 6.76953 14.4872C6.78339 14.4538 6.8035 14.423 6.8291 14.3974C6.85464 14.3719 6.88561 14.3516 6.91895 14.3378C6.95225 14.3241 6.98839 14.3173 7.02441 14.3173C7.06045 14.3174 7.09659 14.324 7.12988 14.3378C7.16309 14.3516 7.1933 14.372 7.21875 14.3974L7.31836 14.497L7.76855 14.0478C7.7941 14.0222 7.82404 14.0011 7.85742 13.9872C7.89075 13.9734 7.92682 13.9668 7.96289 13.9667ZM15.4385 14.289C15.5107 14.2903 15.5803 14.3205 15.6309 14.372C15.6811 14.4234 15.7089 14.4925 15.709 14.5644C15.709 14.6365 15.6813 14.7062 15.6309 14.7578C15.5803 14.8093 15.5107 14.8394 15.4385 14.8408H9.81738C9.74528 14.8394 9.6765 14.8092 9.62598 14.7578C9.57545 14.7062 9.54688 14.6366 9.54688 14.5644C9.54697 14.4924 9.57561 14.4234 9.62598 14.372C9.6765 14.3205 9.74528 14.2904 9.81738 14.289H15.4385ZM15.4385 13.4267C15.5107 13.428 15.5803 13.4572 15.6309 13.5087C15.6814 13.5602 15.709 13.6299 15.709 13.7021C15.709 13.7743 15.6814 13.8439 15.6309 13.8954C15.5803 13.947 15.5107 13.9761 15.4385 13.9775H9.81738C9.74532 13.9761 9.67649 13.9469 9.62598 13.8954C9.5754 13.8439 9.54688 13.7743 9.54688 13.7021C9.54689 13.6299 9.57541 13.5602 9.62598 13.5087C9.67648 13.4573 9.74534 13.4281 9.81738 13.4267H15.4385ZM2.03027 6.43451H3.14355L2.58691 5.08685L2.03027 6.43451Z" fill="#454545" stroke="#454545" stroke-width="0.1"/>
    </g>
    <defs>
        <clipPath id="clip0_1116_10738">
            <rect width="20" height="20" fill="white"/>
        </clipPath>
    </defs>
</svg>
