<svg width="20" height="20" viewBox="0 0 20 20" fill="none" xmlns="http://www.w3.org/2000/svg">
    <path fill-rule="evenodd" clip-rule="evenodd" d="M8.35317 2.28832C8.83822 1.95654 9.41217 1.77902 9.99984 1.77902C10.5875 1.77902 11.1615 1.95654 11.6465 2.28832L17.0632 5.99498C17.4545 6.26269 17.7747 6.62177 17.996 7.04113C18.2173 7.46049 18.3331 7.92748 18.3332 8.40165V15.4167C18.3332 16.1902 18.0259 16.9321 17.4789 17.479C16.9319 18.026 16.1901 18.3333 15.4165 18.3333H4.58317C3.80962 18.3333 3.06776 18.026 2.52078 17.479C1.97379 16.9321 1.6665 16.1902 1.6665 15.4167V8.40165C1.66662 7.92748 1.78234 7.46049 2.00363 7.04113C2.22493 6.62177 2.54513 6.26269 2.9365 5.99498L8.35317 2.28832ZM7.9165 14.5833C7.806 14.5833 7.70002 14.6272 7.62188 14.7054C7.54374 14.7835 7.49984 14.8895 7.49984 15C7.49984 15.1105 7.54374 15.2165 7.62188 15.2946C7.70002 15.3728 7.806 15.4167 7.9165 15.4167H12.0832C12.1937 15.4167 12.2997 15.3728 12.3778 15.2946C12.4559 15.2165 12.4998 15.1105 12.4998 15C12.4998 14.8895 12.4559 14.7835 12.3778 14.7054C12.2997 14.6272 12.1937 14.5833 12.0832 14.5833H7.9165Z" fill="#117C6F"/>
</svg>
