<svg width="16" height="16" viewBox="0 0 16 16" fill="none" xmlns="http://www.w3.org/2000/svg">
    <path d="M13.6654 5.66764H7.6654C7.22353 5.66817 6.79991 5.84393 6.48747 6.15638C6.17502 6.46883 5.99926 6.89244 5.99873 7.33431V11.3343C5.99926 11.7762 6.17502 12.1998 6.48747 12.5122C6.79991 12.8247 7.22353 13.0004 7.6654 13.001H11.0274L12.4784 14.4523C12.5483 14.5223 12.6374 14.5699 12.7345 14.5892C12.8315 14.6086 12.932 14.5987 13.0234 14.5608C13.1148 14.5229 13.1929 14.4588 13.2479 14.3765C13.3028 14.2943 13.3321 14.1976 13.3321 14.0986V13.001H13.6654C14.1073 13.0004 14.5309 12.8247 14.8433 12.5122C15.1558 12.1998 15.3315 11.7762 15.3321 11.3343V7.33431C15.3315 6.89244 15.1558 6.46883 14.8433 6.15638C14.5309 5.84393 14.1073 5.66817 13.6654 5.66764ZM12.3321 8.83431H12.1457C12.0687 9.52257 11.7552 10.1628 11.2587 10.6456C11.5452 10.7689 11.8536 10.8331 12.1654 10.8343C12.2551 10.8338 12.3414 10.8684 12.4059 10.9307C12.4704 10.993 12.508 11.078 12.5107 11.1676C12.5121 11.2108 12.5047 11.2538 12.4892 11.2941C12.4737 11.3343 12.4502 11.3711 12.4202 11.4022C12.3902 11.4332 12.3543 11.458 12.3146 11.475C12.2749 11.4919 12.2322 11.5008 12.1891 11.501C11.6562 11.4995 11.1331 11.3581 10.6721 11.091C10.2153 11.3592 9.69515 11.5008 9.1654 11.501C9.07572 11.5014 8.98942 11.4669 8.9249 11.4046C8.86038 11.3423 8.82276 11.2573 8.82006 11.1676C8.81873 11.1245 8.82605 11.0815 8.84159 11.0412C8.85714 11.0009 8.88059 10.9642 8.91057 10.9331C8.94056 10.902 8.97646 10.8773 9.01616 10.8603C9.05586 10.8434 9.09855 10.8345 9.14173 10.8343C9.4638 10.8347 9.78259 10.7696 10.0787 10.643C9.82029 10.3972 9.60854 10.1066 9.45373 9.78531C9.43333 9.74559 9.42113 9.70217 9.41783 9.65764C9.41454 9.61311 9.42023 9.56837 9.43456 9.52608C9.44888 9.48379 9.47156 9.44481 9.50125 9.41146C9.53093 9.3781 9.56702 9.35105 9.60736 9.33191C9.6477 9.31276 9.69147 9.30192 9.73608 9.30002C9.78069 9.29812 9.82523 9.30521 9.86705 9.32085C9.90887 9.3365 9.94712 9.36038 9.97954 9.3911C10.0119 9.42181 10.0379 9.45872 10.0557 9.49964C10.1995 9.80165 10.4068 10.0691 10.6634 10.2836C11.1024 9.91677 11.3904 9.40061 11.4721 8.83431H8.99873C8.91032 8.83431 8.82554 8.79919 8.76303 8.73668C8.70051 8.67416 8.6654 8.58938 8.6654 8.50097C8.6654 8.41257 8.70051 8.32778 8.76303 8.26527C8.82554 8.20276 8.91032 8.16764 8.99873 8.16764H10.3321V7.50097C10.3321 7.41257 10.3672 7.32778 10.4297 7.26527C10.4922 7.20276 10.577 7.16764 10.6654 7.16764C10.7538 7.16764 10.8386 7.20276 10.9011 7.26527C10.9636 7.32778 10.9987 7.41257 10.9987 7.50097V8.16764H12.3321C12.4205 8.16764 12.5053 8.20276 12.5678 8.26527C12.6303 8.32778 12.6654 8.41257 12.6654 8.50097C12.6654 8.58938 12.6303 8.67416 12.5678 8.73668C12.5053 8.79919 12.4205 8.83431 12.3321 8.83431ZM5.33206 4.80664L4.78906 6.00097H5.7534C5.7774 5.96764 5.80306 5.93431 5.82906 5.90097L5.33206 4.80664Z" fill="#117C6F"/>
    <path d="M8.33268 2H2.33268C1.89082 2.00053 1.4672 2.17629 1.15476 2.48874C0.84231 2.80119 0.666545 3.2248 0.666016 3.66667V7.66667C0.666545 8.10853 0.84231 8.53215 1.15476 8.84459C1.4672 9.15704 1.89082 9.3328 2.33268 9.33333H2.66602V10.431C2.66597 10.5299 2.69527 10.6266 2.75021 10.7089C2.80515 10.7912 2.88325 10.8553 2.97464 10.8932C3.06603 10.931 3.1666 10.9409 3.26362 10.9216C3.36064 10.9023 3.44976 10.8546 3.51968 10.7847L4.97068 9.33333H5.33268V7.33333C5.33336 7.10743 5.36705 6.88283 5.43268 6.66667H4.48668L3.96935 7.80467C3.93151 7.88313 3.86445 7.94366 3.78254 7.9733C3.70063 8.00294 3.61037 7.99934 3.53108 7.96327C3.45179 7.92719 3.38977 7.86151 3.3583 7.78029C3.32683 7.69906 3.3284 7.60875 3.36268 7.52867L5.02935 3.862C5.05586 3.8038 5.09856 3.75446 5.15234 3.71986C5.20613 3.68527 5.26873 3.66687 5.33268 3.66687C5.39663 3.66687 5.45924 3.68527 5.51302 3.71986C5.5668 3.75446 5.6095 3.8038 5.63602 3.862L6.34168 5.41433C6.73044 5.14419 7.19261 4.9996 7.66602 5H9.99935V3.66667C9.99882 3.2248 9.82306 2.80119 9.51061 2.48874C9.19816 2.17629 8.77455 2.00053 8.33268 2Z" fill="#117C6F"/>
</svg>
