<svg width="16" height="16" viewBox="0 0 16 16" fill="none" xmlns="http://www.w3.org/2000/svg">
    <path d="M12.3791 6.90231H12.0364V4.43671C12.0364 2.21111 10.2256 0.400391 8.00003 0.400391C5.77443 0.400391 3.96371 2.21111 3.96371 4.43671V6.90231H3.62099C2.63379 6.90231 1.83459 7.70327 1.83459 8.68871V13.8122C1.83459 14.7994 2.63395 15.6004 3.62099 15.6004H12.3792C13.3664 15.6004 14.1656 14.7994 14.1656 13.8122V8.68871C14.1656 7.70311 13.3663 6.90231 12.3792 6.90231H12.3791ZM8.81635 11.5545V13.0113C8.81635 13.2278 8.73035 13.4354 8.57726 13.5885C8.42417 13.7416 8.21654 13.8276 8.00003 13.8276C7.78353 13.8276 7.5759 13.7416 7.42281 13.5885C7.26972 13.4354 7.18371 13.2278 7.18371 13.0113V11.5545C6.95713 11.4158 6.76997 11.2212 6.64017 10.9895C6.51037 10.7577 6.44228 10.4964 6.44243 10.2308C6.44243 9.37175 7.14099 8.67495 8.00003 8.67495C8.85907 8.67495 9.55763 9.37175 9.55763 10.2308C9.55779 10.4964 9.4897 10.7577 9.3599 10.9895C9.2301 11.2212 9.04294 11.4158 8.81635 11.5545ZM10.249 6.90231H5.75107V4.43671C5.75107 3.19655 6.75987 2.18775 8.00003 2.18775C9.24019 2.18775 10.249 3.19655 10.249 4.43671V6.90231Z" fill="#117C6F"/>
</svg>
