<svg width="244" height="36" viewBox="0 0 244 36" fill="none" xmlns="http://www.w3.org/2000/svg">
    <path d="M44.6769 3V14.4258H57.3194V3H65V33H57.3194V21.4042H44.6769V33H37V3H44.6769Z" fill="#41968C"/>
    <path d="M67 33L78.9782 3H89.0036L101 33H92.7241L90.2305 26.3747H77.6788L75.1379 33H67ZM80.176 19.8361H87.7514L83.9837 9.94337L80.176 19.8361Z" fill="#41968C"/>
    <path d="M116.761 3.01084C123.81 3.01084 128.493 6.23854 128.493 13.2542C128.493 18.3542 125.119 21.6253 120.558 22.3229L129 33H120.009L112.624 22.453H110.175V33H103V3L116.761 3.01084ZM110.178 9.98674V16.8289H116.509C119.309 16.8289 120.982 15.7843 120.982 13.341C120.982 11.0313 119.292 9.98674 116.509 9.98674H110.178Z" fill="#41968C"/>
    <path d="M130 3H156V9.97842H146.795V33H139.201V9.97842H130V3Z" fill="#41968C"/>
    <path d="M182 3V9.97842H166.164V14.4258H179.894V21.4042H166.164V26.0252H182V33H159V3H182Z" fill="#41968C"/>
    <path d="M212 20.3307C212 27.9394 208.288 33 199.5 33C190.712 33 187 27.9287 187 20.32V3H194.423V20.4626C194.423 24.0727 196.117 25.7085 199.5 25.7085C202.883 25.7085 204.573 24.0727 204.573 20.4626V3H212V20.3307Z" fill="#41968C"/>
    <path d="M231.751 3.01084C238.799 3.01084 243.482 6.23854 243.482 13.2542C243.482 18.3542 240.108 21.6253 235.548 22.3229L244 33H235.009L227.624 22.453H225.175V33H218V3L231.751 3.01084ZM225.164 9.98674V16.8289H231.506C234.306 16.8289 235.982 15.7843 235.982 13.341C235.982 11.0313 234.292 9.98674 231.506 9.98674H225.164Z" fill="#41968C"/>
    <g clip-path="url(#clip0_470_17347)">
        <path d="M16.8928 23.5708L17.9984 36L34 26.993V23.5708H16.8928Z" fill="url(#paint0_linear_470_17347)"/>
        <path d="M16.8928 12.4322H34V8.99981L17.9984 0.00292969L16.8928 12.4322Z" fill="url(#paint1_linear_470_17347)"/>
        <path d="M8.7408 5.19775V30.7877L2 26.9892V8.99625L8.7408 5.19775Z" fill="#30C3B1"/>
        <path d="M18.0016 0V35.9961L11.2496 32.1976V3.79849L18.0016 0Z" fill="#30C3B1"/>
    </g>
    <defs>
        <linearGradient id="paint0_linear_470_17347" x1="16.8928" y1="29.785" x2="34" y2="29.785" gradientUnits="userSpaceOnUse">
            <stop stop-color="#188C7B"/>
            <stop offset="0.07" stop-color="#1B9281"/>
            <stop offset="0.43" stop-color="#26AD9B"/>
            <stop offset="0.75" stop-color="#2DBDAB"/>
            <stop offset="1" stop-color="#30C3B1"/>
        </linearGradient>
        <linearGradient id="paint1_linear_470_17347" x1="16.8928" y1="6.21794" x2="2.08002" y2="6.21794" gradientUnits="userSpaceOnUse">
            <stop stop-color="#188C7B"/>
            <stop offset="0.07" stop-color="#1B9281"/>
            <stop offset="0.43" stop-color="#26AD9B"/>
            <stop offset="0.75" stop-color="#2DBDAB"/>
            <stop offset="1" stop-color="#30C3B1"/>
        </linearGradient>
        <clipPath id="clip0_470_17347">
            <rect width="32" height="36" fill="white" transform="translate(2)"/>
        </clipPath>
    </defs>
</svg>
