<svg width="24" height="24" viewBox="0 0 24 24" fill="none" xmlns="http://www.w3.org/2000/svg">
    <path d="M3.37136 15.9989C3.44917 15.9052 3.52558 15.8114 3.60058 15.7209C4.63183 14.4736 5.25574 13.7208 5.25574 10.1897C5.25574 8.36156 5.69308 6.86156 6.55511 5.73656C7.19073 4.90547 8.04995 4.275 9.18245 3.80906C9.19703 3.80096 9.21004 3.79032 9.22089 3.77766C9.62823 2.41359 10.7429 1.5 12.0001 1.5C13.2573 1.5 14.3715 2.41359 14.7789 3.77625C14.7897 3.78845 14.8026 3.79875 14.8168 3.80672C17.4596 4.89469 18.744 6.98203 18.744 10.1883C18.744 13.7208 19.367 14.4736 20.3992 15.7195C20.4742 15.81 20.5506 15.9019 20.6284 15.9975C20.8294 16.2399 20.9567 16.5348 20.9954 16.8473C21.034 17.1598 20.9823 17.4769 20.8464 17.7609C20.5571 18.3703 19.9407 18.7486 19.2371 18.7486H4.75792C4.05761 18.7486 3.44543 18.3708 3.15527 17.7642C3.01875 17.4801 2.96655 17.1628 3.00485 16.8499C3.04315 16.537 3.17035 16.2417 3.37136 15.9989Z" fill="#03A188"/>
    <path d="M11.9991 22.5C11.3217 22.4995 10.6572 22.3156 10.0758 21.9679C9.49452 21.6202 9.01815 21.1217 8.69723 20.5252C8.68211 20.4966 8.67465 20.4646 8.67556 20.4322C8.67647 20.3999 8.68572 20.3684 8.70242 20.3407C8.71912 20.313 8.7427 20.2901 8.77087 20.2742C8.79903 20.2583 8.83083 20.25 8.86317 20.25H15.1341C15.1665 20.2499 15.1983 20.2582 15.2266 20.274C15.2548 20.2899 15.2785 20.3128 15.2952 20.3405C15.312 20.3682 15.3213 20.3997 15.3222 20.4321C15.3231 20.4645 15.3157 20.4965 15.3005 20.5252C14.9796 21.1216 14.5033 21.6201 13.9221 21.9678C13.3409 22.3155 12.6764 22.4994 11.9991 22.5Z" fill="#03A188"/>
</svg>
