<svg width="24" height="24" viewBox="0 0 24 24" fill="none" xmlns="http://www.w3.org/2000/svg">
    <path d="M6 0C5.175 0 4.5 0.675 4.5 1.5V22.5C4.5 23.325 5.175 24 6 24H21C21.825 24 22.5 23.325 22.5 22.5V6L16.5 0H6Z" fill="#E2E5E7"/>
    <path d="M18 6H22.5L16.5 0V4.5C16.5 5.325 17.175 6 18 6Z" fill="#B0B7BD"/>
    <path d="M22.5 10.5L18 6H22.5V10.5Z" fill="#CAD1D8"/>
    <path d="M19.5 19.5C19.5 19.9125 19.1625 20.25 18.75 20.25H2.25C1.8375 20.25 1.5 19.9125 1.5 19.5V12C1.5 11.5875 1.8375 11.25 2.25 11.25H18.75C19.1625 11.25 19.5 11.5875 19.5 12V19.5Z" fill="#F15642"/>
    <path d="M4.76953 14.2099C4.76953 14.0119 4.92553 13.7959 5.17678 13.7959H6.56203C7.34203 13.7959 8.04403 14.3179 8.04403 15.3184C8.04403 16.2664 7.34203 16.7944 6.56203 16.7944H5.56078V17.5864C5.56078 17.8504 5.39278 17.9996 5.17678 17.9996C4.97878 17.9996 4.76953 17.8504 4.76953 17.5864V14.2099ZM5.56078 14.5511V16.0451H6.56203C6.96403 16.0451 7.28203 15.6904 7.28203 15.3184C7.28203 14.8991 6.96403 14.5511 6.56203 14.5511H5.56078ZM9.21853 17.9996C9.02053 17.9996 8.80453 17.8916 8.80453 17.6284V14.2219C8.80453 14.0066 9.02053 13.8499 9.21853 13.8499H10.5918C13.3323 13.8499 13.2723 17.9996 10.6458 17.9996H9.21853ZM9.59653 14.5819V17.2684H10.5918C12.211 17.2684 12.283 14.5819 10.5918 14.5819H9.59653ZM14.2443 14.6299V15.5831H15.7735C15.9895 15.5831 16.2055 15.7991 16.2055 16.0084C16.2055 16.2064 15.9895 16.3684 15.7735 16.3684H14.2443V17.6276C14.2443 17.8376 14.095 17.9989 13.885 17.9989C13.621 17.9989 13.4598 17.8376 13.4598 17.6276V14.2211C13.4598 14.0059 13.6218 13.8491 13.885 13.8491H15.9903C16.2543 13.8491 16.4103 14.0059 16.4103 14.2211C16.4103 14.4131 16.2543 14.6291 15.9903 14.6291H14.2443V14.6299Z" fill="white"/>
    <path d="M18.75 20.25H4.5V21H18.75C19.1625 21 19.5 20.6625 19.5 20.25V19.5C19.5 19.9125 19.1625 20.25 18.75 20.25Z" fill="#CAD1D8"/>
</svg>
