<svg width="20" height="20" viewBox="0 0 20 20" fill="none" xmlns="http://www.w3.org/2000/svg">
    <path d="M9.97467 9.63408C11.2982 9.63408 12.4441 9.15936 13.3807 8.22276C14.317 7.28635 14.7919 6.14057 14.7919 4.8169C14.7919 3.49363 14.3172 2.34773 13.3806 1.41097C12.444 0.474687 11.298 0 9.97467 0C8.65096 0 7.50515 0.474687 6.56874 1.41113C5.63234 2.34757 5.15745 3.49351 5.15745 4.8169C5.15745 6.14057 5.6323 7.28651 6.56878 8.22295C7.5055 9.15924 8.65143 9.63408 9.97463 9.63408H9.97467ZM7.39761 2.23984C8.11612 1.52129 8.95905 1.17203 9.97467 1.17203C10.9901 1.17203 11.8332 1.52129 12.5519 2.23984C13.2704 2.95851 13.6198 3.80155 13.6198 4.81687C13.6198 5.83249 13.2704 6.67542 12.5519 7.39409C11.8332 8.1128 10.9901 8.46205 9.97467 8.46205C8.95932 8.46205 8.11647 8.11264 7.39761 7.39409C6.6789 6.67557 6.32948 5.83253 6.32948 4.8169C6.32948 3.80155 6.6789 2.95851 7.39761 2.23984ZM18.4034 15.379C18.3764 14.9893 18.3218 14.5641 18.2414 14.1153C18.1602 13.663 18.0557 13.2354 17.9306 12.8447C17.8012 12.4408 17.6256 12.0419 17.4081 11.6597C17.1827 11.2629 16.9179 10.9175 16.6206 10.6332C16.3098 10.3358 15.9292 10.0967 15.4892 9.92229C15.0506 9.74885 14.5646 9.66096 14.0448 9.66096C13.8406 9.66096 13.6432 9.74471 13.2619 9.99299C12.9908 10.1695 12.7189 10.3448 12.4463 10.5188C12.1843 10.6857 11.8294 10.8421 11.391 10.9837C10.9633 11.1221 10.529 11.1923 10.1002 11.1923C9.67178 11.1923 9.23749 11.1221 8.80948 10.9837C8.37159 10.8422 8.01651 10.6859 7.75495 10.5189C7.45143 10.325 7.17683 10.148 6.93862 9.99279C6.55761 9.74455 6.36015 9.66076 6.15601 9.66076C5.63597 9.66076 5.15015 9.74881 4.71175 9.92248C4.27199 10.0966 3.89128 10.3357 3.58015 10.6334C3.28293 10.9178 3.01804 11.2631 2.79281 11.6597C2.5757 12.0419 2.39992 12.4406 2.27051 12.8448C2.14551 13.2356 2.04102 13.663 1.95984 14.1153C1.87926 14.5636 1.8248 14.9888 1.79777 15.3795C1.77121 15.7614 1.75781 16.1589 1.75781 16.5605C1.75781 17.6045 2.08969 18.4497 2.74414 19.073C3.3905 19.6881 4.24562 20 5.28577 20H14.9159C15.9558 20 16.8109 19.6881 17.4574 19.073C18.112 18.4501 18.4439 17.6047 18.4439 16.5603C18.4437 16.1574 18.4302 15.7599 18.4034 15.379ZM16.6493 18.2238C16.2222 18.6303 15.6552 18.8279 14.9157 18.8279H5.28581C4.54624 18.8279 3.97921 18.6303 3.55226 18.224C3.13343 17.8253 2.92988 17.281 2.92988 16.5605C2.92988 16.1857 2.94222 15.8157 2.96699 15.4605C2.99105 15.112 3.04035 14.7291 3.11347 14.3223C3.18562 13.9206 3.27746 13.5435 3.38672 13.2022C3.49156 12.8749 3.63453 12.5508 3.81183 12.2386C3.98105 11.941 4.17574 11.6858 4.39058 11.4801C4.59156 11.2877 4.84488 11.1302 5.14331 11.0121C5.41933 10.9028 5.72956 10.843 6.06632 10.834C6.10734 10.8559 6.18046 10.8975 6.29886 10.9747C6.5398 11.1317 6.81749 11.3109 7.12452 11.5069C7.47061 11.7276 7.91643 11.9269 8.44913 12.0988C8.9937 12.2749 9.54913 12.3643 10.1004 12.3643C10.6517 12.3643 11.2073 12.2749 11.7516 12.099C12.2847 11.9267 12.7304 11.7276 13.077 11.5066C13.3911 11.3058 13.6611 11.1319 13.902 10.9747C14.0204 10.8976 14.0935 10.8558 14.1345 10.834C14.4715 10.843 14.7817 10.9028 15.0578 11.0121C15.3561 11.1302 15.6095 11.2878 15.8104 11.4801C16.0252 11.6856 16.2199 11.9409 16.3892 12.2388C16.5666 12.5508 16.7098 12.8751 16.8144 13.202C16.9238 13.5438 17.0158 13.9207 17.0879 14.3222C17.1608 14.7297 17.2102 15.1127 17.2343 15.4606V15.4609C17.2592 15.8148 17.2717 16.1847 17.2719 16.5605C17.2717 17.2812 17.0682 17.8253 16.6493 18.2238H16.6493Z" fill="#454545"/>
</svg>
