<svg width="20" height="20" viewBox="0 0 20 20" fill="none" xmlns="http://www.w3.org/2000/svg">
    <g clip-path="url(#clip0_425_15194)">
        <path d="M9.77935 9.63406C11.1029 9.63406 12.2489 9.15934 13.1854 8.22274C14.1218 7.28634 14.5965 6.14056 14.5965 4.8169C14.5965 3.49362 14.1218 2.34773 13.1852 1.41097C12.2486 0.474686 11.1027 0 9.77935 0C8.45564 0 7.30983 0.474686 6.37342 1.41113C5.43702 2.34757 4.96214 3.4935 4.96214 4.8169C4.96214 6.14056 5.43698 7.2865 6.37358 8.22294C7.31018 9.15922 8.45611 9.63406 9.77935 9.63406ZM18.2081 15.379C18.1811 14.9893 18.1265 14.5641 18.046 14.1153C17.9649 13.663 17.8604 13.2354 17.7352 12.8446C17.606 12.4407 17.4302 12.0419 17.213 11.6596C16.9874 11.2629 16.7225 10.9175 16.4253 10.6332C16.1144 10.3358 15.7339 10.0967 15.2938 9.92227C14.8553 9.74883 14.3693 9.66094 13.8494 9.66094C13.6453 9.66094 13.4478 9.74469 13.0665 9.99297C12.7955 10.1695 12.5236 10.3447 12.2509 10.5187C11.9889 10.6857 11.634 10.8421 11.1956 10.9837C10.7679 11.1221 10.3337 11.1923 9.90505 11.1923C9.47646 11.1923 9.04232 11.1221 8.61416 10.9837C8.17627 10.8422 7.82135 10.6859 7.55963 10.5189C7.25611 10.325 6.98151 10.148 6.7433 9.99277C6.36245 9.74453 6.16483 9.66074 5.96069 9.66074C5.44065 9.66074 4.95483 9.74879 4.51644 9.92246C4.07667 10.0966 3.69597 10.3357 3.38484 10.6334C3.08777 10.9178 2.82273 11.263 2.5975 11.6596C2.38039 12.0419 2.20461 12.4406 2.0752 12.8448C1.9502 13.2356 1.84571 13.663 1.76453 14.1153C1.6841 14.5635 1.6295 14.9888 1.60246 15.3794C1.57557 15.7725 1.56225 16.1664 1.5625 16.5604C1.5625 17.6045 1.89438 18.4496 2.54883 19.0729C3.19519 19.6881 4.05042 20.0001 5.09046 20.0001H14.7206C15.7606 20.0001 16.6155 19.6882 17.2621 19.073C17.9167 18.4501 18.2485 17.6048 18.2485 16.5603C18.2484 16.1573 18.2348 15.7598 18.2081 15.379Z" fill="#117C6F"/>
    </g>
    <defs>
        <clipPath id="clip0_425_15194">
            <rect width="20" height="20" fill="white"/>
        </clipPath>
    </defs>
</svg>
