<svg width="22" height="22" viewBox="0 0 22 22" fill="none" xmlns="http://www.w3.org/2000/svg">
    <path fill-rule="evenodd" clip-rule="evenodd" d="M3.25408 14.5879V3.98622C2.21467 4.12759 1.40771 5.02563 1.40771 6.09985V15.6565C1.83697 15.0734 2.49912 14.67 3.25408 14.5879ZM4.46451 2.6456L4.91525 2.3852L5.366 2.12481L5.11033 1.68224C5.0158 1.51853 4.8435 1.427 4.6669 1.427C4.5801 1.427 4.49244 1.44892 4.41209 1.49532L4.39576 1.50478C4.1517 1.64571 4.06791 1.95896 4.20885 2.20302L4.46451 2.6456ZM8.41334 7.72106L7.78729 8.08243L8.46275 8.52974L8.41334 7.72106ZM7.84272 7.45509L7.39197 7.71548L4.72232 3.09204L5.17307 2.83165L5.62381 2.57169L8.29303 7.19513L7.84272 7.45509ZM21.087 11.4744L14.3576 21.1071H21.087V20.6315H20.598C20.4558 20.6315 20.3402 20.5159 20.3402 20.3736C20.3402 20.2314 20.4558 20.1158 20.598 20.1158H21.087V18.9028H20.598C20.4558 18.9028 20.3402 18.7872 20.3402 18.645C20.3402 18.5024 20.4558 18.3872 20.598 18.3872H21.087V17.1742H20.598C20.4558 17.1742 20.3402 17.0586 20.3402 16.9164C20.3402 16.7737 20.4558 16.6586 20.598 16.6586H21.087V15.4451H20.598C20.4558 15.4451 20.3402 15.33 20.3402 15.1873C20.3402 15.0451 20.4558 14.9295 20.598 14.9295H21.087V13.7165H20.598C20.4558 13.7165 20.3402 13.6009 20.3402 13.4587C20.3402 13.3165 20.4558 13.2009 20.598 13.2009H21.087V11.4744ZM19.1409 15.5818C19.1724 15.5369 19.2173 15.5032 19.2693 15.4855C19.3212 15.4679 19.3774 15.4673 19.4297 15.4838C19.5371 15.5173 19.6101 15.617 19.6101 15.7296V19.9143C19.6101 20.0565 19.4946 20.1721 19.3523 20.1721H16.4292C16.3329 20.1721 16.2448 20.1184 16.2006 20.0333C16.1563 19.9483 16.1628 19.8451 16.2178 19.7665L19.1409 15.5818ZM12.5057 15.3459H10.359V17.3516H12.5057V15.3459ZM14.9764 12.8245V17.3516H13.0213V15.0881C13.0213 14.9458 12.9057 14.8302 12.7635 14.8302H10.1012C9.95893 14.8302 9.84334 14.9458 9.84334 15.0881V17.3516H7.88826V12.8245H14.9764ZM11.4323 8.42231L16.0063 12.3088H6.8583L11.4323 8.42231ZM3.76971 6.34005H6.00236L7.074 8.19673C7.07486 8.19845 7.07658 8.19974 7.07744 8.20145C7.08475 8.21306 7.09291 8.22466 7.10193 8.2354C7.10279 8.23626 7.10365 8.23755 7.10408 8.23841C7.11397 8.24958 7.12471 8.25946 7.13631 8.26849C7.13932 8.27106 7.1419 8.27321 7.1449 8.27536C7.14834 8.27751 7.15135 8.28052 7.15479 8.28266L8.60885 9.24474C8.65182 9.27352 8.70123 9.2877 8.75108 9.2877C8.78626 9.28778 8.82108 9.28064 8.85339 9.26672C8.88571 9.25281 8.91483 9.23241 8.93895 9.2068C8.96307 9.18119 8.98168 9.1509 8.99364 9.11782C9.00559 9.08473 9.01064 9.04954 9.00846 9.01442L8.90232 7.27376C8.90232 7.27247 8.9019 7.27075 8.9019 7.26946C8.90147 7.2613 8.90018 7.25313 8.89889 7.24497C8.89846 7.24282 8.89803 7.24067 8.8976 7.23809C8.89373 7.21876 8.88729 7.19942 8.87869 7.18095L8.87483 7.17321C8.87268 7.16892 8.87096 7.16462 8.86838 7.16032L8.39486 6.34005H19.0945V13.426L14.9536 19.3536H3.52607C2.96533 19.3536 2.4351 19.131 2.03291 18.7271C1.62986 18.3223 1.40771 17.7874 1.40771 17.2206C1.40771 16.0583 2.35303 15.1018 3.5149 15.0881C3.58275 15.0872 3.64753 15.0597 3.69523 15.0115C3.74292 14.9632 3.76968 14.8981 3.76971 14.8302V6.34005ZM5.9899 12.3703L11.2652 7.88735C11.3614 7.80571 11.5028 7.80571 11.599 7.88735L16.8743 12.3703C16.9145 12.4045 16.9433 12.4501 16.9567 12.5011C16.9701 12.5521 16.9676 12.6061 16.9495 12.6556C16.9313 12.7051 16.8983 12.7478 16.8551 12.778C16.8118 12.8082 16.7603 12.8244 16.7076 12.8245H15.492V17.6095C15.492 17.7521 15.3764 17.8673 15.2342 17.8673H7.63002C7.48779 17.8673 7.37221 17.7521 7.37221 17.6095V12.8245H6.15662C6.10386 12.8245 6.05236 12.8083 6.0091 12.7781C5.96584 12.7479 5.93289 12.7051 5.91471 12.6556C5.89652 12.606 5.89399 12.5521 5.90743 12.5011C5.92088 12.4501 5.94967 12.4044 5.9899 12.3703Z" fill="#117C6F"/>
</svg>
