<svg width="22" height="22" viewBox="0 0 22 22" fill="none" xmlns="http://www.w3.org/2000/svg">
    <g clip-path="url(#clip0_1194_2291)">
        <mask id="path-1-outside-1_1194_2291" maskUnits="userSpaceOnUse" x="-0.355469" y="-0.356445" width="22" height="22" fill="black">
            <rect fill="white" x="-0.355469" y="-0.356445" width="22" height="22"/>
            <path d="M16.6272 12.1026L11.3519 7.61962C11.3053 7.58009 11.2461 7.55839 11.185 7.55839C11.1238 7.55839 11.0647 7.58009 11.018 7.61962L5.74234 12.1026C5.70216 12.1367 5.6734 12.1824 5.65996 12.2334C5.64651 12.2844 5.64902 12.3383 5.66715 12.3879C5.68539 12.4374 5.71835 12.4801 5.7616 12.5103C5.80485 12.5405 5.85632 12.5567 5.90906 12.5567H7.12465V17.3417C7.12465 17.484 7.24023 17.5995 7.38246 17.5995H14.9862C15.1284 17.5995 15.244 17.484 15.244 17.3417V12.5567H16.4596C16.5679 12.5567 16.6641 12.4893 16.7015 12.3879C16.7393 12.2865 16.7097 12.1726 16.6272 12.1026ZM12.2581 17.0839H10.1114V15.0781H12.2581V17.0839ZM14.7288 17.0839H12.7738V14.8203C12.7738 14.6781 12.6582 14.5625 12.5159 14.5625H9.85359C9.71137 14.5625 9.59578 14.6781 9.59578 14.8203V17.0839H7.6407V12.5567H14.7288V17.0839ZM6.61074 12.0411L11.1848 8.15458L15.7588 12.0411H6.61074ZM21.175 10.1415C21.0676 10.1075 20.9507 10.1475 20.8862 10.2399L19.363 12.4205V5.8145C19.363 5.67228 19.2474 5.55669 19.1052 5.55669H7.84996L5.69422 1.82271L5.30965 1.15669C5.02648 0.666417 4.39742 0.497979 3.90715 0.780714L3.89082 0.790167C3.40055 1.07333 3.23211 1.70239 3.51484 2.19267L3.89941 2.85868L5.45703 5.55669H3.52215V3.44134C3.52215 3.37259 3.49465 3.30642 3.44566 3.25786C3.39668 3.20931 3.33137 3.18095 3.26133 3.18353C1.81844 3.20071 0.644531 4.3888 0.644531 5.83212V16.9529C0.644531 17.6567 0.919961 18.321 1.42012 18.8233C1.91984 19.3252 2.57984 19.6015 3.27852 19.6015H14.346L13.4041 20.9498C13.3771 20.9885 13.3612 21.0338 13.3581 21.0808C13.3551 21.1279 13.3651 21.1749 13.3869 21.2167C13.4087 21.2585 13.4415 21.2935 13.4818 21.318C13.5221 21.3425 13.5684 21.3554 13.6155 21.3554H21.0977C21.2399 21.3554 21.3555 21.2399 21.3555 21.0976V10.3872C21.3555 10.2747 21.2824 10.1754 21.175 10.1415ZM4.14863 1.23704L4.16496 1.22759C4.24531 1.18118 4.33297 1.15927 4.41977 1.15927C4.59637 1.15927 4.76867 1.25079 4.8632 1.4145L5.11887 1.85708L4.66813 2.11747L4.21738 2.37786L3.96172 1.93528C3.82078 1.69122 3.905 1.37798 4.14863 1.23704ZM4.92594 2.56392L5.37668 2.30353L8.0459 6.92696L7.59516 7.18735L7.14441 7.44775L4.4752 2.82431L4.92594 2.56392ZM8.21562 8.262L7.54016 7.81513L8.16621 7.45376L8.21562 8.262ZM1.16016 5.83212C1.16016 4.75833 1.96711 3.85985 3.00652 3.71849V14.3202C2.25156 14.4022 1.58984 14.8057 1.16016 15.3888V5.83212ZM3.27852 19.0854C2.71777 19.0854 2.18754 18.8628 1.78535 18.4589C1.3823 18.0546 1.16016 17.5192 1.16016 16.9529C1.16016 15.7906 2.10547 14.8341 3.26734 14.8203C3.33519 14.8195 3.39997 14.792 3.44767 14.7437C3.49536 14.6955 3.52212 14.6304 3.52215 14.5625V6.07232H5.7548L6.82645 7.929L6.82988 7.93372C6.83719 7.94575 6.84535 7.95736 6.85438 7.96767L6.85695 7.97068C6.86684 7.98185 6.87758 7.99173 6.88918 8.00075C6.89219 8.0029 6.89477 8.00505 6.89777 8.0072C6.90121 8.00978 6.90422 8.01235 6.90766 8.0145L8.36172 8.977C8.40469 9.00536 8.45453 9.01997 8.50395 9.01997C8.5482 9.01997 8.59289 9.00837 8.63285 8.9856C8.67436 8.96165 8.70836 8.92661 8.73106 8.88441C8.75375 8.84221 8.76423 8.79452 8.76133 8.74669L8.65519 7.00603L8.65477 7.00173C8.65434 6.99357 8.65305 6.9854 8.65176 6.97724C8.65176 6.97724 8.6509 6.97294 8.65047 6.97036C8.6466 6.95103 8.64016 6.93169 8.63156 6.91279L8.6277 6.90505C8.62555 6.90075 8.6234 6.89646 8.62125 6.89259L8.14773 6.07232H18.8474V13.1583L14.7065 19.0854H3.27852ZM14.1105 20.8394L20.8398 11.2067V12.9331H20.3513C20.2091 12.9331 20.0935 13.0487 20.0935 13.1909C20.0935 13.3332 20.2091 13.4488 20.3513 13.4488H20.8398V14.6618H20.3513C20.2091 14.6618 20.0935 14.7774 20.0935 14.9196C20.0935 15.0618 20.2091 15.1774 20.3513 15.1774H20.8398V16.3904H20.3513C20.2091 16.3904 20.0935 16.506 20.0935 16.6482C20.0935 16.7904 20.2091 16.906 20.3513 16.906H20.8398V18.119H20.3513C20.2091 18.119 20.0935 18.2346 20.0935 18.3769C20.0935 18.5191 20.2091 18.6347 20.3513 18.6347H20.8398V19.8477H20.3513C20.2091 19.8477 20.0935 19.9633 20.0935 20.1055C20.0935 20.2477 20.2091 20.3633 20.3513 20.3633H20.8398V20.8394H14.1105ZM19.1825 15.2161C19.0751 15.1821 18.9582 15.2221 18.8938 15.3145L15.9706 19.4992C15.9436 19.5378 15.9277 19.5831 15.9246 19.6302C15.9216 19.6773 15.9316 19.7242 15.9534 19.766C15.9752 19.8079 16.008 19.8429 16.0483 19.8674C16.0886 19.8919 16.1349 19.9048 16.182 19.9048H19.1052C19.2474 19.9048 19.363 19.7892 19.363 19.647V15.4623C19.363 15.3493 19.29 15.2496 19.1825 15.2161ZM18.8474 19.3888H16.6766L18.8474 16.2813V19.3888ZM7.03699 6.47837C6.94805 6.47837 6.86125 6.43196 6.81356 6.34946L4.9848 3.18181C4.91348 3.05849 4.95602 2.90079 5.07934 2.82946C5.20266 2.75814 5.36035 2.80067 5.43168 2.924L7.26043 6.09165C7.33176 6.21497 7.28922 6.37267 7.1659 6.444C7.12508 6.4672 7.08082 6.47837 7.03699 6.47837Z"/>
        </mask>
        <path d="M16.6272 12.1026L11.3519 7.61962C11.3053 7.58009 11.2461 7.55839 11.185 7.55839C11.1238 7.55839 11.0647 7.58009 11.018 7.61962L5.74234 12.1026C5.70216 12.1367 5.6734 12.1824 5.65996 12.2334C5.64651 12.2844 5.64902 12.3383 5.66715 12.3879C5.68539 12.4374 5.71835 12.4801 5.7616 12.5103C5.80485 12.5405 5.85632 12.5567 5.90906 12.5567H7.12465V17.3417C7.12465 17.484 7.24023 17.5995 7.38246 17.5995H14.9862C15.1284 17.5995 15.244 17.484 15.244 17.3417V12.5567H16.4596C16.5679 12.5567 16.6641 12.4893 16.7015 12.3879C16.7393 12.2865 16.7097 12.1726 16.6272 12.1026ZM12.2581 17.0839H10.1114V15.0781H12.2581V17.0839ZM14.7288 17.0839H12.7738V14.8203C12.7738 14.6781 12.6582 14.5625 12.5159 14.5625H9.85359C9.71137 14.5625 9.59578 14.6781 9.59578 14.8203V17.0839H7.6407V12.5567H14.7288V17.0839ZM6.61074 12.0411L11.1848 8.15458L15.7588 12.0411H6.61074ZM21.175 10.1415C21.0676 10.1075 20.9507 10.1475 20.8862 10.2399L19.363 12.4205V5.8145C19.363 5.67228 19.2474 5.55669 19.1052 5.55669H7.84996L5.69422 1.82271L5.30965 1.15669C5.02648 0.666417 4.39742 0.497979 3.90715 0.780714L3.89082 0.790167C3.40055 1.07333 3.23211 1.70239 3.51484 2.19267L3.89941 2.85868L5.45703 5.55669H3.52215V3.44134C3.52215 3.37259 3.49465 3.30642 3.44566 3.25786C3.39668 3.20931 3.33137 3.18095 3.26133 3.18353C1.81844 3.20071 0.644531 4.3888 0.644531 5.83212V16.9529C0.644531 17.6567 0.919961 18.321 1.42012 18.8233C1.91984 19.3252 2.57984 19.6015 3.27852 19.6015H14.346L13.4041 20.9498C13.3771 20.9885 13.3612 21.0338 13.3581 21.0808C13.3551 21.1279 13.3651 21.1749 13.3869 21.2167C13.4087 21.2585 13.4415 21.2935 13.4818 21.318C13.5221 21.3425 13.5684 21.3554 13.6155 21.3554H21.0977C21.2399 21.3554 21.3555 21.2399 21.3555 21.0976V10.3872C21.3555 10.2747 21.2824 10.1754 21.175 10.1415ZM4.14863 1.23704L4.16496 1.22759C4.24531 1.18118 4.33297 1.15927 4.41977 1.15927C4.59637 1.15927 4.76867 1.25079 4.8632 1.4145L5.11887 1.85708L4.66813 2.11747L4.21738 2.37786L3.96172 1.93528C3.82078 1.69122 3.905 1.37798 4.14863 1.23704ZM4.92594 2.56392L5.37668 2.30353L8.0459 6.92696L7.59516 7.18735L7.14441 7.44775L4.4752 2.82431L4.92594 2.56392ZM8.21562 8.262L7.54016 7.81513L8.16621 7.45376L8.21562 8.262ZM1.16016 5.83212C1.16016 4.75833 1.96711 3.85985 3.00652 3.71849V14.3202C2.25156 14.4022 1.58984 14.8057 1.16016 15.3888V5.83212ZM3.27852 19.0854C2.71777 19.0854 2.18754 18.8628 1.78535 18.4589C1.3823 18.0546 1.16016 17.5192 1.16016 16.9529C1.16016 15.7906 2.10547 14.8341 3.26734 14.8203C3.33519 14.8195 3.39997 14.792 3.44767 14.7437C3.49536 14.6955 3.52212 14.6304 3.52215 14.5625V6.07232H5.7548L6.82645 7.929L6.82988 7.93372C6.83719 7.94575 6.84535 7.95736 6.85438 7.96767L6.85695 7.97068C6.86684 7.98185 6.87758 7.99173 6.88918 8.00075C6.89219 8.0029 6.89477 8.00505 6.89777 8.0072C6.90121 8.00978 6.90422 8.01235 6.90766 8.0145L8.36172 8.977C8.40469 9.00536 8.45453 9.01997 8.50395 9.01997C8.5482 9.01997 8.59289 9.00837 8.63285 8.9856C8.67436 8.96165 8.70836 8.92661 8.73106 8.88441C8.75375 8.84221 8.76423 8.79452 8.76133 8.74669L8.65519 7.00603L8.65477 7.00173C8.65434 6.99357 8.65305 6.9854 8.65176 6.97724C8.65176 6.97724 8.6509 6.97294 8.65047 6.97036C8.6466 6.95103 8.64016 6.93169 8.63156 6.91279L8.6277 6.90505C8.62555 6.90075 8.6234 6.89646 8.62125 6.89259L8.14773 6.07232H18.8474V13.1583L14.7065 19.0854H3.27852ZM14.1105 20.8394L20.8398 11.2067V12.9331H20.3513C20.2091 12.9331 20.0935 13.0487 20.0935 13.1909C20.0935 13.3332 20.2091 13.4488 20.3513 13.4488H20.8398V14.6618H20.3513C20.2091 14.6618 20.0935 14.7774 20.0935 14.9196C20.0935 15.0618 20.2091 15.1774 20.3513 15.1774H20.8398V16.3904H20.3513C20.2091 16.3904 20.0935 16.506 20.0935 16.6482C20.0935 16.7904 20.2091 16.906 20.3513 16.906H20.8398V18.119H20.3513C20.2091 18.119 20.0935 18.2346 20.0935 18.3769C20.0935 18.5191 20.2091 18.6347 20.3513 18.6347H20.8398V19.8477H20.3513C20.2091 19.8477 20.0935 19.9633 20.0935 20.1055C20.0935 20.2477 20.2091 20.3633 20.3513 20.3633H20.8398V20.8394H14.1105ZM19.1825 15.2161C19.0751 15.1821 18.9582 15.2221 18.8938 15.3145L15.9706 19.4992C15.9436 19.5378 15.9277 19.5831 15.9246 19.6302C15.9216 19.6773 15.9316 19.7242 15.9534 19.766C15.9752 19.8079 16.008 19.8429 16.0483 19.8674C16.0886 19.8919 16.1349 19.9048 16.182 19.9048H19.1052C19.2474 19.9048 19.363 19.7892 19.363 19.647V15.4623C19.363 15.3493 19.29 15.2496 19.1825 15.2161ZM18.8474 19.3888H16.6766L18.8474 16.2813V19.3888ZM7.03699 6.47837C6.94805 6.47837 6.86125 6.43196 6.81356 6.34946L4.9848 3.18181C4.91348 3.05849 4.95602 2.90079 5.07934 2.82946C5.20266 2.75814 5.36035 2.80067 5.43168 2.924L7.26043 6.09165C7.33176 6.21497 7.28922 6.37267 7.1659 6.444C7.12508 6.4672 7.08082 6.47837 7.03699 6.47837Z" fill="#454545"/>
        <path d="M16.6272 12.1026L11.3519 7.61962C11.3053 7.58009 11.2461 7.55839 11.185 7.55839C11.1238 7.55839 11.0647 7.58009 11.018 7.61962L5.74234 12.1026C5.70216 12.1367 5.6734 12.1824 5.65996 12.2334C5.64651 12.2844 5.64902 12.3383 5.66715 12.3879C5.68539 12.4374 5.71835 12.4801 5.7616 12.5103C5.80485 12.5405 5.85632 12.5567 5.90906 12.5567H7.12465V17.3417C7.12465 17.484 7.24023 17.5995 7.38246 17.5995H14.9862C15.1284 17.5995 15.244 17.484 15.244 17.3417V12.5567H16.4596C16.5679 12.5567 16.6641 12.4893 16.7015 12.3879C16.7393 12.2865 16.7097 12.1726 16.6272 12.1026ZM12.2581 17.0839H10.1114V15.0781H12.2581V17.0839ZM14.7288 17.0839H12.7738V14.8203C12.7738 14.6781 12.6582 14.5625 12.5159 14.5625H9.85359C9.71137 14.5625 9.59578 14.6781 9.59578 14.8203V17.0839H7.6407V12.5567H14.7288V17.0839ZM6.61074 12.0411L11.1848 8.15458L15.7588 12.0411H6.61074ZM21.175 10.1415C21.0676 10.1075 20.9507 10.1475 20.8862 10.2399L19.363 12.4205V5.8145C19.363 5.67228 19.2474 5.55669 19.1052 5.55669H7.84996L5.69422 1.82271L5.30965 1.15669C5.02648 0.666417 4.39742 0.497979 3.90715 0.780714L3.89082 0.790167C3.40055 1.07333 3.23211 1.70239 3.51484 2.19267L3.89941 2.85868L5.45703 5.55669H3.52215V3.44134C3.52215 3.37259 3.49465 3.30642 3.44566 3.25786C3.39668 3.20931 3.33137 3.18095 3.26133 3.18353C1.81844 3.20071 0.644531 4.3888 0.644531 5.83212V16.9529C0.644531 17.6567 0.919961 18.321 1.42012 18.8233C1.91984 19.3252 2.57984 19.6015 3.27852 19.6015H14.346L13.4041 20.9498C13.3771 20.9885 13.3612 21.0338 13.3581 21.0808C13.3551 21.1279 13.3651 21.1749 13.3869 21.2167C13.4087 21.2585 13.4415 21.2935 13.4818 21.318C13.5221 21.3425 13.5684 21.3554 13.6155 21.3554H21.0977C21.2399 21.3554 21.3555 21.2399 21.3555 21.0976V10.3872C21.3555 10.2747 21.2824 10.1754 21.175 10.1415ZM4.14863 1.23704L4.16496 1.22759C4.24531 1.18118 4.33297 1.15927 4.41977 1.15927C4.59637 1.15927 4.76867 1.25079 4.8632 1.4145L5.11887 1.85708L4.66813 2.11747L4.21738 2.37786L3.96172 1.93528C3.82078 1.69122 3.905 1.37798 4.14863 1.23704ZM4.92594 2.56392L5.37668 2.30353L8.0459 6.92696L7.59516 7.18735L7.14441 7.44775L4.4752 2.82431L4.92594 2.56392ZM8.21562 8.262L7.54016 7.81513L8.16621 7.45376L8.21562 8.262ZM1.16016 5.83212C1.16016 4.75833 1.96711 3.85985 3.00652 3.71849V14.3202C2.25156 14.4022 1.58984 14.8057 1.16016 15.3888V5.83212ZM3.27852 19.0854C2.71777 19.0854 2.18754 18.8628 1.78535 18.4589C1.3823 18.0546 1.16016 17.5192 1.16016 16.9529C1.16016 15.7906 2.10547 14.8341 3.26734 14.8203C3.33519 14.8195 3.39997 14.792 3.44767 14.7437C3.49536 14.6955 3.52212 14.6304 3.52215 14.5625V6.07232H5.7548L6.82645 7.929L6.82988 7.93372C6.83719 7.94575 6.84535 7.95736 6.85438 7.96767L6.85695 7.97068C6.86684 7.98185 6.87758 7.99173 6.88918 8.00075C6.89219 8.0029 6.89477 8.00505 6.89777 8.0072C6.90121 8.00978 6.90422 8.01235 6.90766 8.0145L8.36172 8.977C8.40469 9.00536 8.45453 9.01997 8.50395 9.01997C8.5482 9.01997 8.59289 9.00837 8.63285 8.9856C8.67436 8.96165 8.70836 8.92661 8.73106 8.88441C8.75375 8.84221 8.76423 8.79452 8.76133 8.74669L8.65519 7.00603L8.65477 7.00173C8.65434 6.99357 8.65305 6.9854 8.65176 6.97724C8.65176 6.97724 8.6509 6.97294 8.65047 6.97036C8.6466 6.95103 8.64016 6.93169 8.63156 6.91279L8.6277 6.90505C8.62555 6.90075 8.6234 6.89646 8.62125 6.89259L8.14773 6.07232H18.8474V13.1583L14.7065 19.0854H3.27852ZM14.1105 20.8394L20.8398 11.2067V12.9331H20.3513C20.2091 12.9331 20.0935 13.0487 20.0935 13.1909C20.0935 13.3332 20.2091 13.4488 20.3513 13.4488H20.8398V14.6618H20.3513C20.2091 14.6618 20.0935 14.7774 20.0935 14.9196C20.0935 15.0618 20.2091 15.1774 20.3513 15.1774H20.8398V16.3904H20.3513C20.2091 16.3904 20.0935 16.506 20.0935 16.6482C20.0935 16.7904 20.2091 16.906 20.3513 16.906H20.8398V18.119H20.3513C20.2091 18.119 20.0935 18.2346 20.0935 18.3769C20.0935 18.5191 20.2091 18.6347 20.3513 18.6347H20.8398V19.8477H20.3513C20.2091 19.8477 20.0935 19.9633 20.0935 20.1055C20.0935 20.2477 20.2091 20.3633 20.3513 20.3633H20.8398V20.8394H14.1105ZM19.1825 15.2161C19.0751 15.1821 18.9582 15.2221 18.8938 15.3145L15.9706 19.4992C15.9436 19.5378 15.9277 19.5831 15.9246 19.6302C15.9216 19.6773 15.9316 19.7242 15.9534 19.766C15.9752 19.8079 16.008 19.8429 16.0483 19.8674C16.0886 19.8919 16.1349 19.9048 16.182 19.9048H19.1052C19.2474 19.9048 19.363 19.7892 19.363 19.647V15.4623C19.363 15.3493 19.29 15.2496 19.1825 15.2161ZM18.8474 19.3888H16.6766L18.8474 16.2813V19.3888ZM7.03699 6.47837C6.94805 6.47837 6.86125 6.43196 6.81356 6.34946L4.9848 3.18181C4.91348 3.05849 4.95602 2.90079 5.07934 2.82946C5.20266 2.75814 5.36035 2.80067 5.43168 2.924L7.26043 6.09165C7.33176 6.21497 7.28922 6.37267 7.1659 6.444C7.12508 6.4672 7.08082 6.47837 7.03699 6.47837Z" stroke="#454545" stroke-width="0.4" mask="url(#path-1-outside-1_1194_2291)"/>
    </g>
    <defs>
        <clipPath id="clip0_1194_2291">
            <rect width="22" height="22" fill="white"/>
        </clipPath>
    </defs>
</svg>
