<svg width="16" height="16" viewBox="0 0 16 16" fill="none" xmlns="http://www.w3.org/2000/svg">
    <path d="M11.2163 9.32539L8.54126 12.0004C8.39751 12.1441 8.30064 12.3379 8.27564 12.541L8.06001 14.166C8.04126 14.316 8.05689 14.4629 8.10689 14.6035H1.48189C0.635014 14.6035 0.0318888 13.7785 0.291264 12.9723L1.31939 9.75977C1.65064 8.72852 2.77876 8.19414 3.78501 8.58477C4.45376 8.84414 5.31314 9.04727 6.36626 9.04727C7.41939 9.04727 8.27876 8.84414 8.94751 8.58477C9.80376 8.25039 10.7475 8.58477 11.2163 9.32539ZM6.36939 1.40039C4.59126 1.40039 3.14751 2.84414 3.14751 4.62227C3.14751 6.40039 4.59126 7.84414 6.36939 7.84414C8.14751 7.84414 9.59126 6.40039 9.59126 4.62227C9.59126 2.84414 8.14751 1.40039 6.36939 1.40039ZM12.5881 8.83789L8.98189 12.441C8.93189 12.4879 8.90376 12.5535 8.89439 12.6223L8.67876 14.2473C8.65064 14.4504 8.82564 14.6254 9.02876 14.5973L10.6538 14.3816C10.7225 14.3723 10.785 14.341 10.835 14.2941L14.4381 10.6879L12.5881 8.83789ZM15.5413 8.47852L14.7944 7.73164C14.4881 7.42539 13.9944 7.42539 13.6913 7.73164L13.2319 8.19102L15.0819 10.041L15.5413 9.58164C15.8444 9.27852 15.8444 8.78477 15.5413 8.47852Z" fill="#117C6F"/>
</svg>
