<svg width="16" height="16" viewBox="0 0 16 16" fill="none" xmlns="http://www.w3.org/2000/svg">
    <path d="M6.95478 12.0645L6.90011 12.1191C6.95256 11.5551 7.423 11.1105 8.00078 11.1105C8.05972 11.1105 8.11624 11.087 8.15791 11.0454C8.19959 11.0037 8.223 10.9472 8.223 10.8882C8.223 10.8293 8.19959 10.7728 8.15791 10.7311C8.11624 10.6894 8.05972 10.666 8.00078 10.666C7.17278 10.666 6.49544 11.3171 6.44967 12.134L6.38011 12.0645C6.35961 12.0432 6.33509 12.0263 6.30798 12.0147C6.28087 12.003 6.25171 11.9969 6.2222 11.9966C6.19269 11.9964 6.16343 12.002 6.13612 12.0132C6.10881 12.0243 6.084 12.0408 6.06313 12.0617C6.04227 12.0826 6.02577 12.1074 6.01459 12.1347C6.00342 12.162 5.9978 12.1913 5.99806 12.2208C5.99831 12.2503 6.00444 12.2794 6.01609 12.3065C6.02774 12.3337 6.04466 12.3582 6.06589 12.3787L6.51033 12.8231C6.53092 12.8438 6.5554 12.8603 6.58237 12.8715C6.60933 12.8827 6.63824 12.8885 6.66744 12.8885C6.69665 12.8885 6.72556 12.8827 6.75252 12.8715C6.77949 12.8603 6.80397 12.8438 6.82456 12.8231L7.269 12.3787C7.29022 12.3582 7.30715 12.3337 7.3188 12.3065C7.33045 12.2794 7.33658 12.2503 7.33683 12.2208C7.33709 12.1913 7.33147 12.162 7.32029 12.1347C7.30912 12.1074 7.29262 12.0826 7.27175 12.0617C7.25089 12.0408 7.22608 12.0243 7.19877 12.0132C7.17146 12.002 7.14219 11.9964 7.11269 11.9966C7.08318 11.9969 7.05402 12.003 7.02691 12.0147C6.9998 12.0263 6.97528 12.0432 6.95478 12.0645ZM9.177 11.62L8.73256 12.0645C8.71133 12.085 8.6944 12.1095 8.68276 12.1366C8.67111 12.1637 8.66498 12.1929 8.66472 12.2224C8.66447 12.2519 8.67009 12.2811 8.68126 12.3084C8.69244 12.3358 8.70894 12.3606 8.7298 12.3814C8.75067 12.4023 8.77548 12.4188 8.80279 12.43C8.8301 12.4411 8.85936 12.4468 8.88887 12.4465C8.91837 12.4463 8.94753 12.4401 8.97465 12.4285C9.00176 12.4168 9.02628 12.3999 9.04678 12.3787L9.10144 12.324C9.049 12.888 8.57856 13.3327 8.00078 13.3327C7.94184 13.3327 7.88532 13.3561 7.84364 13.3978C7.80197 13.4394 7.77856 13.496 7.77856 13.5549C7.77856 13.6138 7.80197 13.6704 7.84364 13.712C7.88532 13.7537 7.94184 13.7771 8.00078 13.7771C8.82878 13.7771 9.50611 13.126 9.55189 12.3091L9.62144 12.3787C9.64203 12.3994 9.66651 12.4158 9.69348 12.427C9.72044 12.4383 9.74935 12.444 9.77856 12.444C9.80776 12.444 9.83667 12.4383 9.86363 12.427C9.8906 12.4158 9.91508 12.3994 9.93567 12.3787C9.97733 12.337 10.0007 12.2805 10.0007 12.2216C10.0007 12.1626 9.97733 12.1061 9.93567 12.0645L9.49122 11.62C9.44955 11.5784 9.39304 11.555 9.33411 11.555C9.27519 11.555 9.21867 11.5784 9.177 11.62Z" fill="#117C6F"/>
    <path d="M13.778 3.33355H13.1113V2.22244C13.1113 1.60911 12.6136 1.11133 12.0002 1.11133H4.00022C3.38688 1.11133 2.88911 1.60911 2.88911 2.22244V3.33355H2.22244C1.60911 3.33355 1.11133 3.83133 1.11133 4.44466V10.2224C1.11133 10.8358 1.60911 11.3336 2.22244 11.3336H2.88911C2.88911 11.9469 3.38688 12.4447 4.00022 12.4447H5.34244C5.45577 13.8113 6.60466 14.8891 8.00022 14.8891C9.39577 14.8891 10.5447 13.8113 10.658 12.4447H12.0002C12.6136 12.4447 13.1113 11.9469 13.1113 11.3336H13.778C14.3913 11.3336 14.8891 10.8358 14.8891 10.2224V4.44466C14.8891 3.83133 14.3913 3.33355 13.778 3.33355ZM13.778 3.77799C14.1447 3.77799 14.4447 4.07799 14.4447 4.44466V4.66688H13.1113V3.77799H13.778ZM4.06466 7.62022C4.15133 7.53355 4.29355 7.53355 4.38022 7.62022L4.72688 7.96688C4.83133 7.48911 5.12022 6.78022 5.91799 6.46022C6.03133 6.41577 6.16022 6.47133 6.20688 6.58466C6.25133 6.69799 6.19577 6.82688 6.08244 6.87355C5.12911 7.25577 5.11133 8.39577 5.11133 8.44466C5.11133 8.53577 5.05577 8.61577 4.97355 8.64911C4.94688 8.66022 4.91799 8.66688 4.88911 8.66688C4.83133 8.66688 4.77355 8.64466 4.73133 8.60244L4.06466 7.93577C3.97799 7.84911 3.97799 7.70688 4.06466 7.62022ZM4.06466 4.95355C4.15133 4.86688 4.29355 4.86688 4.38022 4.95355L4.72688 5.30022C4.83133 4.82244 5.12022 4.11355 5.91799 3.79355C6.03133 3.74911 6.16022 3.80466 6.20688 3.91799C6.25133 4.03133 6.19577 4.16022 6.08244 4.20688C5.12911 4.58911 5.11133 5.72911 5.11133 5.77799C5.11133 5.86911 5.05577 5.94911 4.97355 5.98244C4.94688 5.99355 4.91799 6.00022 4.88911 6.00022C4.83133 6.00022 4.77355 5.97799 4.73133 5.93577L4.06466 5.26911C3.97799 5.18244 3.97799 5.04022 4.06466 4.95355ZM6.66688 8.22244C6.66688 8.10022 6.76688 8.00022 6.88911 8.00022H9.33355C9.45577 8.00022 9.55577 8.10022 9.55577 8.22244C9.55577 8.34466 9.45577 8.44466 9.33355 8.44466H6.88911C6.76688 8.44466 6.66688 8.34466 6.66688 8.22244ZM6.88911 7.55577C6.76688 7.55577 6.66688 7.45577 6.66688 7.33355C6.66688 7.21133 6.76688 7.11133 6.88911 7.11133H12.0002C12.1224 7.11133 12.2224 7.21133 12.2224 7.33355C12.2224 7.45577 12.1224 7.55577 12.0002 7.55577H6.88911ZM10.6669 2.44466H11.778C11.9002 2.44466 12.0002 2.54466 12.0002 2.66688C12.0002 2.78911 11.9002 2.88911 11.778 2.88911H10.6669C10.5447 2.88911 10.4447 2.78911 10.4447 2.66688C10.4447 2.54466 10.5447 2.44466 10.6669 2.44466ZM12.0002 4.44466C12.1224 4.44466 12.2224 4.54466 12.2224 4.66688C12.2224 4.78911 12.1224 4.88911 12.0002 4.88911H6.88911C6.76688 4.88911 6.66688 4.78911 6.66688 4.66688C6.66688 4.54466 6.76688 4.44466 6.88911 4.44466H12.0002ZM6.88911 5.33355H9.33355C9.45577 5.33355 9.55577 5.43355 9.55577 5.55577C9.55577 5.67799 9.45577 5.77799 9.33355 5.77799H6.88911C6.76688 5.77799 6.66688 5.67799 6.66688 5.55577C6.66688 5.43355 6.76688 5.33355 6.88911 5.33355ZM12.2224 2.66688C12.2224 2.54466 12.3224 2.44466 12.4447 2.44466H12.6669V2.88911H12.4447C12.3224 2.88911 12.2224 2.78911 12.2224 2.66688ZM10.0002 2.44466C10.1224 2.44466 10.2224 2.54466 10.2224 2.66688C10.2224 2.78911 10.1224 2.88911 10.0002 2.88911H3.33355V2.44466H10.0002ZM1.55577 4.44466C1.55577 4.07799 1.85577 3.77799 2.22244 3.77799H2.88911V4.66688H1.55577V4.44466ZM2.22244 10.8891C1.85577 10.8891 1.55577 10.5891 1.55577 10.2224V5.11133H2.88911V10.8891H2.22244ZM8.00022 14.4447C6.77577 14.4447 5.77799 13.4469 5.77799 12.2224C5.77799 10.998 6.77577 10.0002 8.00022 10.0002C9.22466 10.0002 10.2224 10.998 10.2224 12.2224C10.2224 13.4469 9.22466 14.4447 8.00022 14.4447ZM14.4447 10.2224C14.4447 10.5891 14.1447 10.8891 13.778 10.8891H13.1113V5.11133H14.4447V10.2224Z" fill="#117C6F"/>
</svg>
