<svg width="80" height="80" viewBox="0 0 80 80" fill="none" xmlns="http://www.w3.org/2000/svg">
    <circle cx="40" cy="40" r="40" fill="white"/>
    <path d="M55.36 54.3998H24.64C23.0522 54.3998 21.76 55.692 21.76 57.2798C21.76 58.8677 23.0522 60.1598 24.64 60.1598H55.36C56.9478 60.1598 58.24 58.8677 58.24 57.2798C58.24 55.692 56.9478 54.3998 55.36 54.3998ZM60.16 25.5998C58.0423 25.5998 56.32 27.3221 56.32 29.4398C56.32 30.8626 57.1072 32.0932 58.2611 32.7576C56.0397 38.0183 52.574 41.2459 49.335 40.954C45.7331 40.6603 42.7954 36.4017 41.175 29.2766C43.2524 28.7505 44.7999 26.8785 44.7999 24.6398C44.7999 21.9922 42.6476 19.8398 39.9999 19.8398C37.3522 19.8398 35.1999 21.9922 35.1999 24.6398C35.1999 26.8786 36.7474 28.7506 38.8248 29.2766C37.2044 36.4017 34.2667 40.6603 30.6648 40.954C27.4393 41.2459 23.9583 38.0183 21.7388 32.7576C22.8927 32.0932 23.6799 30.8625 23.6799 29.4398C23.6799 27.3221 21.9576 25.5998 19.8399 25.5998C17.7223 25.5998 16 27.3221 16 29.4398C16 31.4098 17.4976 33.0187 19.4099 33.2376L23.1078 52.4798H56.8922L60.59 33.2376C62.5024 33.0187 64 31.4098 64 29.4398C64 27.3221 62.2777 25.5998 60.16 25.5998Z" fill="#117C6F"/>
</svg>
